<svg xmlns="http://www.w3.org/2000/svg" viewBox="0 0 1024 1024" fill="none" stroke="black" stroke-width="4">
  <polyline points="719,579 718,580 717,580 713,584 713,585 712,586 712,587 711,588 709,588 708,589 707,589 706,590 702,590 701,589 700,589 699,588 698,588 697,587 692,587 691,588 690,588 689,589 688,589 687,590 685,590 684,591 683,591 681,593 680,593 678,595 678,604 674,608 673,608 671,610 664,610 663,611 661,611 661,612 659,614 659,615 658,616 658,617 656,619 656,620 655,621 655,623 654,624 654,629 655,630 655,632 656,633 656,634 657,635 657,639 656,640 656,641 655,642 655,644 651,648 649,648 648,649 647,649 644,652 644,653 643,654 643,662 642,663 643,664 643,669 644,670 644,671 645,671 647,673 648,673 649,674 650,674 653,677 653,680 654,681 654,685 652,687 652,688 650,690 650,691 648,693 648,694 647,695 648,696 648,698 649,699 649,700 650,701 650,702 651,703 651,704 652,705 652,706 654,708 654,709 657,712 662,712 663,711 666,711 671,716 671,717 673,719 673,724 672,725 672,727 673,728 673,730 675,732 676,732 678,734 680,734 681,735 682,735 683,736 685,736 686,737 692,737 697,732 701,732 702,733 703,733 704,734 705,734 709,738 709,741 710,742 710,744 713,747 728,747 729,746 730,746 731,745 731,743 732,742 732,740 736,736 738,736 739,735 744,735 746,737 747,737 750,740 756,740 757,739 758,739 759,738 760,738 761,737 762,737 764,735 765,735 767,733 767,732 768,731 768,724 769,723 769,722 770,721 771,721 771,720 772,719 773,719 775,717 779,717 780,718 785,718 789,714 789,713 791,711 791,710 792,709 792,708 793,707 793,706 794,705 794,704 795,703 795,700 794,699 794,698 792,696 792,695 791,694 791,693 790,692 790,690 791,689 791,688 792,687 792,686 795,683 796,683 797,682 798,682 799,681 800,681 803,678 803,676 804,675 804,670 805,669 805,663 804,662 804,658 802,656 801,656 800,655 799,655 797,653 795,653 794,652 794,650 793,649 793,645 792,644 792,642 794,640 794,639 795,638 795,637 796,636 796,634 797,633 796,632 796,630 795,629 795,628 794,627 794,626 793,625 793,623 792,622 792,621 788,617 784,617 783,616 779,616 775,612 775,611 771,607 771,598 765,592 764,592 762,590 761,590 759,588 757,588 756,587 755,588 753,588 752,589 751,589 750,590 749,590 747,592 742,592 741,591 740,591 739,590 738,590 737,589 737,588 736,587 736,583 735,582 735,581 734,581 733,580 731,580 730,579" fill="none"/>
  <polyline points="243,556 242,557 241,557 241,558 240,559 240,560 239,561 239,563 238,564 238,565 237,566 235,566 234,567 231,567 230,568 225,568 223,566 222,566 221,565 217,565 216,566 215,566 214,567 213,567 212,568 211,568 209,570 208,570 202,576 202,584 203,585 203,586 198,591 197,591 195,593 191,593 190,592 189,592 188,593 187,593 186,594 185,594 179,600 179,601 177,603 177,604 176,605 176,606 175,607 175,609 174,610 174,613 175,614 175,615 176,616 176,617 177,618 177,619 178,620 178,622 177,623 177,624 178,625 177,626 177,627 174,630 172,630 171,631 170,631 169,632 168,632 166,634 166,635 165,636 165,640 164,641 164,654 167,657 168,657 169,658 170,658 173,661 173,668 171,670 171,671 170,672 170,673 167,676 167,678 166,679 166,680 167,681 167,684 168,685 168,687 169,688 169,689 170,690 170,691 171,692 171,693 174,696 175,696 176,697 178,697 179,696 183,696 184,697 184,698 186,700 186,701 187,702 187,703 188,704 188,710 187,711 187,717 196,726 197,726 198,727 199,727 201,729 202,729 203,730 206,730 207,729 208,729 210,727 215,727 216,728 217,728 218,729 219,729 220,730 221,730 222,731 223,731 225,733 225,736 226,737 226,740 228,742 229,742 230,743 232,743 233,744 236,744 237,745 246,745 247,744 248,744 249,743 250,743 253,740 253,739 254,738 255,738 256,737 266,737 267,738 268,738 274,744 279,744 280,743 286,743 287,742 288,742 289,741 290,741 291,740 292,740 293,739 294,739 296,737 296,735 297,734 297,727 301,723 302,723 303,722 304,722 306,720 307,720 308,719 312,719 313,720 314,720 315,721 316,721 317,722 322,722 330,714 330,713 334,709 334,708 335,707 335,704 334,703 334,701 332,699 332,698 330,696 331,695 331,693 332,692 332,691 334,689 334,688 335,687 338,687 339,686 343,686 344,685 345,685 347,683 347,681 348,680 348,678 349,677 349,674 350,673 350,662 345,657 344,657 342,655 342,645 344,643 345,643 350,638 350,633 349,632 349,629 348,628 348,625 347,624 347,623 346,622 346,621 345,620 345,619 344,618 343,618 342,617 339,617 338,616 336,616 333,613 333,612 332,611 332,610 331,609 331,605 332,604 332,602 333,601 333,596 332,595 332,594 330,592 330,591 321,582 320,582 319,583 315,583 314,584 311,584 310,583 309,583 306,580 305,580 303,578 303,576 304,575 304,571 303,570 303,569 300,566 300,565 299,565 298,564 297,564 296,563 295,563 294,562 293,562 292,561 289,561 288,560 284,560 282,562 281,562 278,565 272,565 271,564 266,564 265,563 265,561 260,556" fill="none"/>
  <polyline points="691,268 690,269 673,269 672,270 665,270 664,269 644,269 643,270 642,269 630,269 629,270 627,270 626,269 597,269 596,270 584,270 583,271 581,271 580,270 577,270 576,271 575,271 574,270 571,270 570,271 563,271 562,272 553,272 552,273 539,273 538,274 536,274 535,275 531,275 530,276 526,276 525,277 518,277 517,278 512,278 511,279 509,279 508,280 506,280 505,281 502,281 501,282 498,282 497,283 494,283 493,284 491,284 490,285 487,285 486,286 484,286 483,287 482,287 481,288 479,288 478,289 476,289 474,291 473,291 472,292 471,292 469,294 468,294 466,296 465,296 461,300 461,301 459,303 459,305 457,307 457,308 455,310 455,311 454,312 454,313 453,314 453,315 452,316 452,318 451,319 451,320 450,321 450,322 449,323 449,324 448,325 448,326 447,327 447,329 446,330 446,331 444,333 444,334 443,335 443,336 441,338 441,339 440,340 440,341 438,343 438,344 437,345 437,346 436,347 436,348 435,349 435,350 434,351 434,352 433,353 433,354 432,355 432,357 431,358 431,359 430,360 430,362 429,363 429,364 428,365 428,366 427,367 427,368 425,370 425,371 423,373 423,374 422,375 422,376 421,377 421,379 420,380 420,381 419,382 419,383 418,384 418,385 415,388 415,390 414,391 414,392 413,393 413,394 411,396 411,398 410,399 410,400 409,401 409,403 406,406 406,407 405,408 405,409 404,410 404,412 402,414 402,416 400,418 400,419 396,423 381,423 380,424 374,424 373,425 368,425 367,426 356,426 355,427 352,427 351,428 345,428 344,429 331,429 330,430 324,430 323,431 320,431 319,432 314,432 313,433 300,433 299,434 297,434 296,433 295,434 289,434 288,435 282,435 281,436 279,436 278,435 274,435 273,436 265,436 264,437 257,437 256,438 249,438 248,439 241,439 240,440 227,440 226,441 222,441 221,442 215,442 214,443 202,443 201,444 192,444 191,445 190,445 189,446 184,446 183,447 181,447 180,448 179,448 178,449 177,449 175,451 172,451 171,452 169,452 168,453 167,453 166,454 165,454 164,455 163,455 162,456 160,456 158,458 157,458 155,460 154,460 143,471 143,472 142,473 142,474 141,475 141,477 140,478 140,481 139,482 139,483 138,484 138,488 137,489 137,490 136,491 136,493 135,494 135,495 134,496 134,499 133,500 133,504 132,505 132,508 131,509 131,521 130,522 130,525 129,526 129,551 128,552 128,557 127,558 127,559 126,560 110,560 108,562 107,562 105,564 105,565 103,567 103,568 102,569 102,572 101,573 101,587 100,588 100,591 101,592 101,596 100,597 100,603 101,604 101,605 102,606 102,607 103,608 103,609 108,614 109,614 110,615 148,615 149,614 153,614 154,613 155,613 156,612 157,612 159,610 160,610 160,609 161,608 161,607 162,606 162,604 163,603 163,602 164,601 164,599 165,598 165,596 166,595 166,593 167,592 167,591 168,590 168,589 169,588 169,587 170,586 170,585 171,584 171,582 172,581 172,578 173,577 173,575 174,574 174,573 175,572 175,571 176,570 176,569 177,568 177,567 178,566 178,565 179,564 179,562 181,560 181,558 182,557 182,556 183,555 183,554 184,553 184,552 185,551 185,550 186,549 186,548 188,546 188,545 189,544 190,544 190,543 201,532 204,532 205,531 206,531 207,530 209,530 210,529 213,529 214,528 216,528 217,527 220,527 221,526 223,526 224,527 226,527 227,526 243,526 244,525 256,525 257,526 260,526 261,525 268,525 269,524 280,524 281,525 282,524 283,525 290,525 291,526 295,526 296,527 302,527 305,530 306,530 308,532 309,532 312,535 313,535 314,536 315,536 325,546 325,547 329,551 329,552 330,552 331,553 331,554 332,555 332,556 333,557 333,559 334,560 334,561 339,566 339,567 342,570 342,573 343,574 343,575 345,577 345,578 348,581 348,582 349,583 349,586 350,587 350,588 351,589 351,590 353,592 354,592 356,594 356,596 357,597 357,600 358,601 358,602 359,603 359,604 360,605 360,606 361,607 361,608 362,609 362,610 363,611 363,613 364,614 364,615 368,619 368,620 371,623 372,623 373,624 375,624 376,625 402,625 403,626 425,626 426,625 430,625 431,626 441,626 442,627 446,627 447,626 448,627 460,627 461,626 477,626 478,627 488,627 489,626 490,627 499,627 500,626 501,627 523,627 524,628 532,628 533,627 552,627 553,628 562,628 563,627 571,627 572,628 589,628 590,627 591,628 598,628 599,629 607,629 608,628 612,628 613,629 621,629 622,628 625,628 626,627 628,627 629,626 631,626 633,624 634,624 635,623 635,622 639,618 639,615 642,612 642,611 645,608 645,607 647,605 647,604 648,603 648,602 654,596 654,595 659,590 659,589 660,588 661,588 672,577 673,577 675,575 676,575 677,574 678,574 679,573 680,573 681,572 683,572 684,571 685,571 686,570 688,570 689,569 694,569 695,568 698,568 699,567 702,567 703,566 704,566 705,567 710,567 711,568 717,568 718,567 735,567 736,568 744,568 745,567 747,567 748,568 752,568 753,569 759,569 760,570 763,570 764,571 766,571 767,572 768,572 769,573 771,573 773,575 774,575 776,577 777,577 780,580 781,580 789,588 790,588 793,591 793,592 794,593 794,594 795,595 795,596 797,598 797,599 798,600 798,601 799,602 799,603 800,604 800,606 801,607 801,609 802,610 802,611 803,612 803,613 805,615 805,617 806,618 806,619 807,620 807,621 808,622 808,624 809,625 809,627 810,628 810,629 814,633 816,633 817,634 819,634 820,635 825,635 826,636 834,636 835,635 838,635 839,636 842,636 843,635 874,635 875,634 877,634 879,632 880,632 881,631 882,631 885,628 885,626 886,625 886,624 887,623 887,619 888,618 888,616 889,615 888,614 888,612 889,611 889,600 890,599 890,593 889,592 889,590 888,589 888,588 887,587 887,586 886,586 885,585 881,585 880,584 879,584 878,583 878,573 881,570 890,570 891,569 897,569 898,568 903,568 904,567 905,567 906,566 907,566 908,565 910,565 919,556 919,555 920,554 920,553 921,552 921,551 922,550 922,549 923,548 923,546 924,545 924,543 925,542 925,530 926,529 926,512 927,511 927,500 928,499 928,482 927,481 927,476 928,475 928,471 929,470 929,461 928,460 928,458 927,457 927,454 928,453 928,420 927,419 927,417 926,416 926,413 925,412 925,411 919,405 918,405 917,404 916,404 914,402 911,402 910,401 908,401 907,400 890,400 889,399 883,399 882,400 879,400 877,398 877,397 876,396 876,392 875,391 875,388 874,387 874,383 873,382 873,381 872,380 872,379 873,378 873,375 872,374 872,371 871,370 871,367 870,366 870,361 869,360 869,357 868,356 868,351 867,350 867,347 866,346 866,337 865,336 865,332 864,331 864,330 863,329 863,325 862,324 862,323 863,322 862,321 862,317 861,316 861,314 860,313 860,307 859,306 859,303 858,302 858,300 857,299 857,297 856,296 856,294 855,293 855,290 854,289 854,287 853,286 853,285 850,282 850,281 847,278 846,278 845,277 844,277 843,276 841,276 840,275 839,275 838,274 836,274 835,273 832,273 831,272 828,272 827,271 809,271 808,270 798,270 797,269 772,269 771,268 758,268 757,269 732,269 731,268 713,268 712,269 693,269 692,268" fill="none"/>
</svg>