<svg xmlns="http://www.w3.org/2000/svg" viewBox="0 0 1024 1024" fill="none" stroke="black" stroke-width="4">
  <polyline points="633,159 632,160 625,160 624,161 621,161 620,162 618,162 617,163 615,163 614,164 613,164 610,167 610,168 609,169 609,170 608,171 608,173 607,174 607,177 606,178 606,181 605,182 605,194 604,195 604,202 603,203 603,205 602,206 602,207 601,208 600,208 599,209 598,209 597,210 595,210 594,211 592,211 590,213 588,213 587,214 585,214 584,215 582,215 581,216 576,216 575,215 574,215 573,214 572,214 570,212 569,212 567,210 566,210 565,209 564,209 563,208 562,208 560,206 559,206 557,204 556,204 554,202 553,202 552,201 551,201 550,200 549,200 548,199 547,199 546,198 544,198 543,197 536,197 535,198 533,198 531,200 530,200 529,201 528,201 528,202 518,212 518,213 517,214 516,214 516,215 514,217 514,218 505,227 505,228 501,232 501,233 499,235 499,236 497,238 497,240 496,241 496,244 495,245 495,248 496,249 496,252 497,253 497,254 498,255 498,256 505,263 505,264 508,267 508,268 509,269 510,269 513,272 513,273 514,274 514,279 512,281 512,283 511,284 511,286 510,287 510,289 509,290 509,293 508,294 508,296 507,297 507,300 504,303 501,303 500,304 497,304 496,305 494,305 493,306 489,306 488,307 484,307 483,308 479,308 478,309 477,309 476,310 475,310 472,313 472,314 471,315 471,316 469,318 469,321 468,322 468,324 467,325 467,327 466,328 466,336 465,337 465,343 466,344 465,345 465,365 466,366 466,375 467,376 467,377 470,380 471,380 472,381 474,381 475,382 477,382 478,383 481,383 482,384 489,384 490,385 496,385 497,386 498,385 508,385 509,386 510,386 511,387 512,387 513,388 513,389 514,390 514,391 515,392 515,393 516,394 516,395 517,396 517,398 518,399 518,401 519,402 519,404 520,405 520,409 514,415 514,416 510,420 510,421 509,422 508,422 507,423 506,423 505,422 504,422 498,416 497,416 493,412 492,412 491,411 490,411 487,408 486,408 485,407 485,406 480,401 479,401 477,399 476,399 475,398 474,398 473,397 473,396 471,394 470,394 467,391 466,391 465,390 464,390 463,389 461,389 460,388 458,388 457,387 455,387 454,386 451,386 450,385 449,385 448,384 447,384 446,383 445,383 444,382 443,382 442,381 440,381 439,380 438,380 437,379 436,379 435,378 433,378 432,377 431,377 430,376 428,376 427,375 426,375 425,374 422,374 421,373 419,373 418,372 414,372 413,371 410,371 409,370 407,370 406,369 405,369 404,368 401,368 400,367 398,367 397,366 395,366 393,364 392,365 388,365 387,364 384,364 383,363 379,363 378,362 374,362 373,361 371,361 370,360 365,360 364,359 355,359 354,358 343,358 342,357 338,357 337,356 331,356 330,355 323,355 322,354 317,354 316,353 285,353 284,354 282,354 281,353 273,353 271,355 270,354 269,355 265,355 264,356 263,356 262,355 259,355 258,356 246,356 245,357 239,357 238,358 233,358 232,359 228,359 227,360 222,360 221,361 217,361 216,362 214,362 213,363 212,363 211,364 209,364 208,365 207,365 205,367 205,370 204,371 204,376 203,377 203,378 204,379 204,383 203,384 203,403 202,404 201,404 200,405 192,405 191,406 190,405 184,405 183,406 175,406 174,407 171,407 170,408 169,408 166,411 166,413 165,414 165,418 164,419 164,431 163,432 163,454 164,455 164,461 163,462 163,463 164,464 163,465 163,466 164,467 164,468 163,469 163,489 164,490 163,491 163,497 164,498 164,508 163,509 163,511 164,512 164,520 163,521 163,522 164,523 164,524 163,525 163,527 164,528 164,532 163,533 163,547 162,548 162,550 163,551 163,566 162,567 162,609 161,610 161,611 162,612 162,641 161,642 161,645 162,646 162,650 161,651 161,676 160,677 160,695 159,696 159,697 160,698 160,721 159,722 160,723 160,724 159,725 159,728 160,729 160,739 159,740 159,742 158,743 158,749 159,750 159,760 158,761 158,792 159,793 159,796 160,797 160,801 163,804 164,804 165,805 166,805 167,806 171,806 172,807 181,807 182,808 194,808 195,807 196,807 197,808 198,807 200,807 201,808 202,807 207,807 208,808 209,807 224,807 225,806 237,806 238,807 241,807 242,806 253,806 254,807 256,807 257,806 258,806 259,807 261,807 262,806 266,806 267,807 278,807 279,808 282,808 283,807 284,808 299,808 300,807 316,807 317,806 318,806 319,807 330,807 331,806 332,807 337,807 338,806 341,806 342,807 343,806 345,806 346,807 349,807 350,806 351,807 352,807 353,806 381,806 382,807 383,807 384,806 387,806 388,807 389,807 390,806 454,806 456,808 457,808 462,813 462,814 467,819 468,819 472,823 473,823 476,826 478,826 479,827 480,827 482,829 483,829 484,830 486,830 487,831 488,831 489,832 492,832 493,833 496,833 497,834 501,834 502,835 503,834 508,834 509,833 516,833 517,832 520,832 521,831 523,831 524,830 525,830 526,829 527,829 528,828 529,828 530,827 531,827 532,826 533,826 546,813 547,813 547,812 549,810 550,810 552,808 554,808 555,807 565,807 566,806 570,806 571,807 590,807 591,806 624,806 625,807 626,806 629,806 630,807 652,807 653,806 659,806 660,807 661,806 666,806 667,807 668,806 670,806 671,807 722,807 723,806 725,806 726,807 733,807 734,808 735,808 736,807 737,808 740,808 741,807 752,807 753,806 754,806 755,807 766,807 767,806 775,806 776,807 781,807 782,808 789,808 790,807 807,807 808,808 813,808 814,807 822,807 823,806 825,806 826,807 842,807 843,808 844,807 850,807 851,806 853,806 854,805 855,805 856,804 857,804 858,803 858,802 859,801 859,797 860,796 860,788 861,787 861,771 860,770 860,765 861,764 861,762 860,761 860,744 859,743 859,742 860,741 860,734 859,733 860,732 860,722 859,721 859,708 860,707 859,706 859,699 860,698 860,692 859,691 859,687 858,686 858,680 859,679 859,673 860,672 860,669 859,668 859,646 858,645 858,640 859,639 859,624 858,623 859,622 859,621 858,620 858,615 857,614 857,601 858,600 858,599 857,598 857,594 858,593 858,587 857,586 857,576 858,575 858,571 857,570 857,567 858,566 858,565 857,564 857,550 858,549 858,540 857,539 857,511 856,510 856,502 857,501 857,498 856,497 856,486 855,485 855,481 856,480 855,479 855,468 856,467 856,459 855,458 855,447 854,446 854,444 855,443 855,434 854,433 854,419 853,418 853,417 852,416 852,415 848,411 847,411 845,409 844,409 840,405 838,405 837,404 835,404 834,403 833,403 832,402 831,402 830,401 829,401 828,400 822,400 821,401 809,401 808,402 805,402 804,403 803,403 802,404 801,404 800,405 800,407 799,408 799,414 800,415 799,416 799,417 800,418 800,421 801,422 801,429 800,430 800,446 799,447 799,468 798,469 798,479 799,480 799,484 798,485 798,491 799,492 799,496 798,497 798,499 799,500 799,503 798,504 798,508 799,509 799,526 798,527 799,528 799,532 798,533 798,534 799,535 799,539 798,540 798,541 799,542 799,551 798,552 798,560 799,561 799,569 798,570 798,571 799,572 798,573 798,605 797,606 798,607 798,610 797,611 798,612 798,624 797,625 797,626 798,627 798,681 797,682 797,688 798,689 797,690 797,692 798,693 798,730 797,731 797,732 795,734 794,734 793,735 787,735 786,734 783,734 782,733 779,733 778,732 773,732 772,731 770,731 769,730 763,730 762,729 756,729 755,728 750,728 749,727 741,727 740,726 725,726 724,725 718,725 717,724 714,724 713,725 711,725 710,724 705,724 704,723 690,723 689,724 687,724 686,723 681,723 680,724 668,724 667,725 649,725 648,726 636,726 635,727 632,727 631,728 627,728 626,729 618,729 617,730 612,730 611,731 608,731 607,732 604,732 603,733 601,733 600,734 597,734 596,735 592,735 591,736 586,736 585,737 582,737 581,738 579,738 578,739 574,739 572,741 569,741 568,742 566,742 565,743 564,743 563,744 562,744 561,745 558,745 557,746 555,746 554,747 553,747 552,748 551,748 550,749 549,749 548,750 547,750 546,751 544,751 543,752 542,752 541,753 539,753 537,755 536,755 535,756 534,756 533,757 532,757 531,758 530,758 529,759 528,759 526,761 525,761 524,762 523,762 522,763 521,763 519,765 518,765 517,766 515,764 515,763 514,762 514,756 515,755 515,745 514,744 514,741 515,740 515,729 516,728 515,727 515,719 514,718 514,717 515,716 515,708 516,707 516,700 515,699 515,695 516,694 516,693 515,692 515,654 516,653 515,652 515,645 516,644 516,642 515,641 515,628 516,627 516,604 515,603 515,589 514,588 514,585 515,584 515,580 514,579 515,578 515,567 516,566 516,559 515,558 515,555 516,554 516,553 515,552 515,533 514,532 514,527 515,526 515,497 514,496 514,486 515,485 515,481 514,480 514,478 515,477 515,464 516,463 519,463 524,468 525,468 526,469 527,469 528,470 529,470 531,472 532,472 535,475 536,475 542,481 543,481 545,483 547,483 548,484 551,484 552,485 553,485 554,484 556,484 557,483 559,483 560,482 561,482 562,481 563,481 564,480 565,480 567,478 568,478 571,475 572,475 575,472 576,472 579,469 580,469 581,468 589,468 590,469 592,469 593,470 594,470 595,471 596,471 598,473 599,473 604,478 604,483 605,484 605,499 606,500 606,501 607,502 607,505 608,506 608,508 609,509 609,510 610,511 610,512 612,514 613,514 614,515 616,515 617,516 620,516 621,517 624,517 625,518 632,518 633,519 634,518 639,518 640,519 645,519 646,518 660,518 661,517 666,517 667,516 668,516 671,513 672,513 672,512 674,510 674,509 675,508 675,500 676,499 676,490 677,489 677,485 678,484 678,482 679,481 679,480 683,476 684,476 685,475 686,475 688,473 689,473 690,472 691,472 692,471 694,471 695,470 698,470 699,469 700,470 703,470 704,471 705,471 707,473 708,473 715,480 716,480 719,483 720,483 721,484 722,484 724,486 726,486 727,487 728,487 729,488 739,488 740,487 742,487 743,486 745,486 747,484 748,484 750,482 751,482 756,477 757,477 766,468 767,468 768,467 768,466 777,457 777,456 778,455 778,453 779,452 779,444 778,443 778,441 777,440 777,438 776,437 776,436 773,433 773,432 771,430 771,429 770,428 770,426 768,424 768,423 767,422 767,421 765,419 765,418 764,417 764,415 766,413 766,412 767,411 767,410 768,409 768,407 769,406 769,405 770,404 770,402 771,401 771,400 772,399 772,397 773,396 773,395 774,394 775,394 776,393 781,393 782,392 783,392 784,393 786,393 787,392 791,392 792,393 794,393 795,392 796,392 797,393 799,393 800,392 803,392 804,391 810,391 815,386 815,384 816,383 816,380 817,379 817,378 818,377 818,373 819,372 819,371 820,370 820,363 821,362 821,357 822,356 822,350 823,349 823,347 822,346 822,345 823,344 823,337 822,336 822,335 821,334 821,330 820,329 820,327 818,325 818,324 817,323 817,322 816,321 815,321 813,319 813,318 812,317 811,317 810,316 809,316 807,314 804,314 803,313 798,313 797,312 793,312 792,311 785,311 784,310 783,310 782,309 781,309 779,307 779,306 778,305 778,303 777,302 777,299 776,298 776,295 775,294 775,292 774,291 774,289 773,288 773,283 774,282 774,281 778,277 778,276 781,273 782,273 782,272 785,269 785,268 786,267 786,266 788,264 788,263 789,262 789,261 791,259 791,257 792,256 792,244 791,243 791,242 790,241 790,240 789,239 789,238 788,238 785,235 785,234 781,230 781,228 778,225 778,224 774,220 773,220 771,218 771,217 769,215 769,214 766,211 766,210 762,206 760,206 758,204 755,204 754,203 753,203 752,202 746,202 745,203 742,203 741,204 740,204 739,205 738,205 737,206 736,206 734,208 732,208 729,211 728,211 727,212 726,212 725,213 724,213 722,215 721,215 720,216 719,216 716,219 715,219 714,220 713,219 712,220 711,219 710,219 709,218 708,218 707,217 706,217 705,216 703,216 702,215 700,215 698,213 697,213 696,212 694,212 693,211 691,211 690,210 686,210 683,207 683,201 682,200 682,181 681,180 681,176 680,175 680,174 679,173 679,172 678,171 678,170 674,166 673,166 671,164 666,164 665,163 662,163 661,162 650,162 649,161 646,161 645,160 634,160" fill="none"/>
</svg>