<svg xmlns="http://www.w3.org/2000/svg" viewBox="0 0 1024 1024" fill="none" stroke="black" stroke-width="4">
  <polyline points="669,646 668,647 665,647 664,648 664,649 663,650 663,651 662,652 662,653 661,654 661,655 660,656 660,657 659,658 653,658 652,657 651,657 646,652 643,652 642,651 641,651 640,652 637,652 635,654 635,655 634,656 634,657 633,658 633,660 632,661 632,669 630,671 630,672 629,673 625,673 624,674 623,674 622,673 613,673 612,674 611,674 609,676 609,677 608,678 608,679 607,680 607,682 606,683 607,684 607,686 610,689 610,690 611,691 611,695 610,696 610,697 608,699 607,699 606,700 604,700 603,701 601,701 600,702 599,702 598,703 597,703 596,704 595,704 593,706 593,715 594,716 594,717 597,720 597,721 598,721 599,722 600,722 602,724 602,726 603,727 603,729 604,730 604,731 601,734 600,734 598,736 597,736 596,737 595,737 593,739 592,739 592,741 591,742 591,749 592,750 592,752 593,753 593,754 594,754 596,756 598,756 599,757 606,757 607,758 607,759 609,761 609,762 610,763 610,766 609,767 609,768 607,770 607,771 606,772 606,781 608,783 609,783 610,784 611,784 612,785 614,785 615,786 628,786 629,787 629,795 630,796 630,797 631,798 631,800 633,802 635,802 636,803 640,803 641,804 643,804 644,803 646,803 647,802 647,801 650,798 659,798 660,799 660,801 661,802 661,804 662,805 662,806 663,806 664,807 665,807 666,808 667,808 668,809 672,809 673,808 676,808 678,806 678,805 679,804 679,803 681,801 682,801 683,800 686,800 687,799 689,799 693,803 693,804 696,804 697,805 702,805 703,804 705,804 706,803 707,803 709,801 709,797 710,796 710,791 711,790 711,788 712,787 713,787 714,786 716,786 717,785 719,785 720,786 724,786 725,787 729,787 730,786 732,786 734,784 734,782 735,781 735,778 736,777 736,773 735,772 735,771 734,770 734,769 733,768 733,765 735,763 735,762 738,759 740,759 741,758 743,758 744,757 745,757 747,755 747,754 748,753 748,752 749,751 749,750 750,749 750,745 751,744 751,742 750,741 751,740 750,739 750,738 749,737 748,737 745,734 744,734 743,733 742,733 740,731 740,730 741,729 741,726 740,725 741,724 741,722 742,721 743,721 744,720 745,720 746,719 747,719 748,718 749,718 750,717 750,714 751,713 751,712 750,711 750,707 749,706 749,705 748,704 748,703 747,702 746,702 745,701 742,701 740,699 739,699 736,696 736,693 735,692 735,681 734,680 734,676 732,674 731,674 730,673 719,673 718,672 717,672 715,670 714,670 712,668 711,668 710,667 710,661 709,660 709,654 707,652 705,652 704,651 696,651 695,652 694,652 691,655 690,655 689,656 682,656 680,654 680,652 679,651 679,649 677,647 676,647 675,646" fill="none"/>
  <polyline points="265,637 264,638 263,638 261,640 261,641 260,642 260,643 259,644 259,647 258,648 258,651 257,652 249,652 248,653 247,652 246,652 244,650 244,649 243,649 242,648 232,648 229,651 229,652 228,653 228,663 227,664 227,665 224,668 219,668 218,667 216,667 215,666 211,666 210,667 208,667 207,668 207,669 206,670 206,672 205,673 205,675 204,676 204,679 205,680 205,681 206,682 206,685 207,686 206,687 206,690 205,691 205,693 204,694 204,696 203,697 202,697 201,698 196,698 195,699 194,699 191,702 191,704 190,705 190,710 191,711 191,714 194,717 194,718 195,719 196,719 199,722 199,725 198,726 198,727 197,728 196,728 194,730 193,730 192,731 191,731 188,734 188,744 189,745 189,747 190,748 190,751 192,753 195,753 196,754 199,754 200,755 202,755 203,756 204,756 205,757 205,758 206,759 206,763 204,765 204,766 202,768 202,774 203,775 203,778 204,779 204,780 206,782 207,782 208,783 210,783 211,784 214,784 215,785 216,785 218,783 223,783 228,788 228,791 227,792 228,793 228,795 229,796 229,798 232,801 234,801 235,802 244,802 245,801 246,801 249,798 256,798 257,799 258,799 260,801 260,802 261,803 261,804 266,809 275,809 276,808 277,808 278,807 279,807 279,806 280,805 280,803 282,801 282,800 284,798 285,798 286,797 295,797 298,800 299,800 300,801 309,801 312,798 312,797 313,796 313,794 314,793 314,784 316,782 319,782 320,781 326,781 327,782 329,782 330,781 332,781 336,777 336,776 337,775 337,773 339,771 339,769 337,767 337,766 335,764 335,762 336,761 336,760 335,759 335,754 338,751 346,751 349,748 349,747 350,746 350,745 351,744 351,739 352,738 352,736 351,735 351,734 345,728 345,727 344,726 344,720 343,719 345,717 346,717 349,714 350,714 351,713 351,712 352,711 352,705 351,704 351,703 350,702 350,701 349,700 348,700 347,699 346,699 345,698 344,698 343,697 340,697 339,696 337,696 336,695 336,694 333,691 333,689 332,688 332,687 333,686 333,685 334,684 334,683 335,682 335,681 336,680 336,675 334,673 334,672 332,670 332,669 331,668 329,668 328,667 320,667 319,666 318,666 317,665 316,665 315,664 314,664 312,662 312,661 313,660 313,657 314,656 314,655 313,654 313,653 312,652 312,651 310,649 310,648 309,647 308,647 307,646 305,646 304,645 298,645 297,646 296,646 294,648 294,649 291,652 290,651 287,651 286,650 282,650 281,649 280,649 279,648 279,647 278,646 278,642 277,641 277,640 276,639 276,638 275,638 274,637" fill="none"/>
  <polyline points="808,173 807,174 806,174 804,176 803,176 802,177 801,177 799,179 798,179 796,181 795,181 793,183 792,183 788,187 787,187 784,190 783,190 781,192 780,192 778,194 777,194 775,196 774,196 771,199 770,199 767,202 766,202 763,205 762,205 759,208 758,208 755,211 754,211 752,213 751,213 748,216 747,216 744,219 743,219 740,222 739,222 735,226 734,226 728,232 728,233 727,234 725,234 721,238 720,238 718,240 717,240 714,243 713,243 711,245 710,245 707,248 706,248 702,252 701,252 698,255 697,255 686,266 685,266 682,269 681,269 679,271 678,271 671,278 670,278 667,281 666,281 658,289 657,289 651,295 650,295 640,305 640,306 632,314 632,315 624,323 623,323 622,324 622,325 618,329 618,330 614,334 614,335 611,338 611,339 610,340 610,342 608,344 608,346 606,348 606,349 605,350 605,351 604,352 604,353 603,354 603,355 602,356 602,357 600,359 600,361 599,362 599,363 598,364 598,365 597,366 597,367 596,368 596,369 595,370 595,371 594,372 594,373 593,374 593,375 592,376 592,377 591,378 591,379 589,381 589,382 587,384 587,385 586,386 586,387 585,388 585,389 584,390 584,391 583,392 583,393 582,394 582,396 581,397 581,398 580,399 580,400 579,401 579,402 578,403 578,404 577,405 577,406 576,407 576,408 575,409 575,413 573,415 573,416 572,417 572,418 570,420 570,421 569,422 569,423 568,424 568,425 566,427 566,428 565,429 565,430 564,431 564,432 562,434 562,435 561,436 561,437 560,438 560,439 559,440 559,442 558,443 558,445 557,446 557,448 556,449 556,450 555,451 555,452 554,453 554,454 553,455 553,456 551,458 551,459 550,460 550,461 549,462 549,464 548,465 548,466 547,467 547,468 546,469 546,471 545,472 545,474 544,475 544,477 543,478 543,479 542,480 542,481 541,482 541,484 540,485 540,486 539,487 539,488 538,489 538,490 537,491 537,492 536,493 536,495 535,496 535,497 534,498 534,499 533,500 533,501 532,502 532,504 531,505 531,506 530,507 530,509 529,510 529,511 525,515 522,515 521,516 520,516 519,517 516,517 515,518 514,518 510,522 510,526 509,527 509,534 508,535 508,541 507,542 507,545 506,546 506,547 507,548 507,552 506,553 506,568 504,570 501,570 500,571 498,571 497,570 487,570 486,571 485,570 482,570 480,568 480,562 479,561 480,560 480,544 479,543 480,542 480,511 479,510 479,508 480,507 480,493 481,492 481,491 480,490 480,485 481,484 481,462 480,461 481,460 481,457 480,456 480,452 481,451 481,438 480,437 480,423 479,422 480,421 480,420 479,419 480,418 480,415 479,414 479,410 478,409 478,401 477,400 477,399 476,398 476,397 475,396 475,395 471,391 470,391 468,389 467,389 466,388 462,388 461,387 453,387 452,388 441,388 440,387 428,387 427,386 423,386 422,387 421,386 401,386 400,387 394,387 393,386 387,386 386,387 385,387 384,386 383,387 374,387 373,388 372,387 350,387 349,388 347,388 346,389 345,389 344,390 340,390 339,391 338,391 337,392 336,392 335,393 333,393 332,394 331,394 330,395 329,395 328,396 327,396 326,397 326,398 325,399 325,400 324,401 324,402 320,406 320,407 316,411 316,412 315,413 315,414 312,417 312,418 310,420 310,421 308,423 308,424 307,425 307,426 306,427 306,428 305,429 305,433 303,435 303,436 301,438 301,439 299,441 299,442 297,444 297,445 296,446 296,447 294,449 294,450 293,451 293,452 291,454 291,456 290,457 290,458 289,459 289,460 288,461 288,462 286,464 286,465 285,466 285,467 284,468 285,469 284,470 284,471 280,475 280,476 279,477 279,478 278,479 278,480 275,483 275,484 273,486 273,488 271,490 271,491 270,492 270,493 268,495 268,496 267,497 267,498 266,499 266,500 264,502 264,504 263,505 263,506 262,507 262,508 260,510 259,510 258,511 256,511 255,512 253,512 252,513 251,513 250,514 246,514 245,515 242,515 240,517 238,517 237,518 234,518 233,519 232,519 231,520 220,520 219,521 216,521 215,522 213,522 212,523 211,523 210,524 208,524 207,525 202,525 201,526 197,526 196,527 194,527 193,528 192,528 191,529 190,529 189,530 187,530 186,531 184,531 183,532 179,532 178,533 173,533 172,534 170,534 169,535 166,535 165,536 163,536 162,537 161,537 160,538 159,538 158,539 157,539 154,542 152,542 151,543 150,543 146,547 146,548 145,549 145,550 144,551 144,552 143,553 143,554 142,555 142,558 141,559 141,563 140,564 140,578 141,579 141,581 140,582 140,589 139,590 139,595 138,596 138,622 137,623 136,623 135,624 132,624 131,625 129,625 128,626 126,626 124,628 122,628 119,631 119,632 118,633 118,634 117,635 117,636 116,637 116,644 115,645 115,680 116,681 116,682 117,683 117,686 119,688 119,689 120,690 120,691 123,694 125,694 126,695 128,695 129,696 130,696 131,697 135,697 136,698 138,698 139,697 140,698 170,698 171,697 178,697 179,696 180,696 183,693 183,692 184,691 184,690 185,689 185,688 187,686 187,685 188,684 188,683 189,682 189,681 190,680 190,679 191,678 191,676 192,675 192,674 193,673 193,671 194,670 194,667 195,666 195,664 196,663 196,660 197,659 197,658 198,657 198,655 199,654 199,651 200,650 200,649 201,648 201,647 202,646 202,645 204,643 204,642 206,640 206,639 208,637 208,636 215,629 216,629 218,627 219,627 221,625 222,625 223,624 224,624 225,623 229,623 230,622 237,622 238,621 244,621 245,620 257,620 258,621 270,621 271,620 274,620 275,621 296,621 297,622 301,622 302,623 306,623 307,624 311,624 313,626 315,626 316,627 317,627 318,628 319,628 321,630 322,630 324,632 325,632 331,638 331,639 332,640 332,641 333,642 333,643 335,645 335,646 336,647 336,648 338,650 338,651 341,654 341,655 342,656 342,657 344,659 344,660 345,661 345,662 346,663 346,664 347,665 347,666 349,668 349,669 350,670 350,671 351,672 351,673 352,674 352,675 354,677 354,678 356,680 356,681 358,683 358,684 360,686 360,687 361,688 361,689 362,690 362,691 364,693 364,695 366,697 367,696 368,696 369,697 374,697 375,698 376,698 377,699 391,699 392,700 395,700 396,699 405,699 406,700 439,700 440,699 442,699 443,700 446,700 447,699 460,699 461,700 472,700 473,699 488,699 489,700 490,699 499,699 500,700 512,700 513,701 516,701 517,700 565,700 566,699 574,699 575,698 576,698 578,696 579,696 583,692 583,691 584,690 584,689 586,687 586,686 588,684 588,683 590,681 590,680 591,679 591,678 593,676 593,675 595,673 595,672 596,671 596,670 597,669 597,668 599,666 599,664 602,661 602,660 603,659 603,658 606,655 606,654 611,649 612,649 614,647 615,647 617,645 618,645 620,643 621,643 622,642 623,642 624,641 625,641 627,639 628,639 629,638 630,638 631,637 632,637 633,636 634,636 635,635 636,635 637,634 638,634 639,633 642,633 643,632 647,632 648,631 654,631 655,630 666,630 667,631 685,631 686,632 689,632 690,633 696,633 697,634 701,634 702,635 703,634 704,635 707,635 709,637 710,637 711,638 712,638 713,639 714,639 716,641 717,641 718,642 719,642 720,643 721,643 722,644 724,644 726,646 727,646 729,648 729,649 738,658 739,658 747,666 747,668 748,669 748,671 749,672 749,673 750,674 750,676 751,677 751,678 752,679 752,680 753,681 753,682 754,683 754,684 755,685 755,686 756,687 756,688 757,689 757,690 758,691 758,693 759,694 759,695 763,699 765,699 766,700 768,700 769,701 769,702 785,702 786,701 788,703 799,703 800,702 816,702 817,701 826,701 827,702 829,702 831,700 832,700 833,699 834,699 838,695 838,694 839,693 839,688 840,687 840,686 841,685 841,679 842,678 842,675 843,674 842,673 842,639 843,638 842,637 843,636 843,614 842,613 842,582 841,581 841,579 840,578 840,577 839,576 839,575 837,573 837,572 836,572 835,571 834,571 833,570 818,570 817,571 815,571 814,570 811,570 810,571 809,570 806,570 805,571 804,570 801,570 800,571 798,571 797,570 796,571 784,571 783,570 760,570 759,571 758,571 757,570 756,570 755,571 753,571 752,570 745,570 744,569 715,569 714,570 713,569 711,569 710,570 709,569 690,569 689,570 684,570 683,569 679,569 678,570 677,569 674,569 673,570 668,570 667,571 659,571 658,570 646,570 645,569 645,561 644,560 645,559 645,530 644,529 644,523 643,522 643,520 642,520 641,519 641,518 640,518 639,517 638,517 637,516 627,516 626,517 624,517 622,515 622,513 623,512 623,510 624,509 624,508 625,507 625,504 626,503 626,501 627,500 627,499 629,497 629,495 630,494 630,492 631,491 631,490 632,489 632,488 633,487 633,486 634,485 634,484 635,483 635,482 636,481 636,479 637,478 637,476 638,475 638,474 639,473 639,471 640,470 640,468 641,467 641,465 642,464 642,462 643,461 643,460 644,459 644,458 646,456 646,452 650,448 650,447 651,446 651,445 652,444 652,443 653,442 653,440 654,439 654,437 655,436 655,434 656,433 656,432 657,431 657,430 658,429 658,428 659,427 659,425 660,424 660,423 661,422 661,421 662,420 662,419 663,418 663,417 664,416 664,414 665,413 665,412 666,411 666,406 668,404 668,403 669,402 669,401 670,400 670,399 672,397 672,396 675,393 675,392 676,391 676,389 677,388 677,386 678,385 678,384 679,383 679,381 681,379 681,376 682,375 682,374 684,372 685,372 685,370 686,369 686,368 691,363 691,362 692,361 692,360 693,359 693,358 696,355 696,354 701,349 702,349 705,346 705,345 713,337 713,336 715,334 715,333 724,324 724,323 736,311 736,310 745,301 745,300 747,298 747,297 749,295 750,295 750,294 760,284 761,284 767,278 767,277 772,272 772,271 776,267 776,266 785,257 786,257 787,256 787,255 794,248 794,247 796,245 797,245 810,232 811,232 814,229 815,229 816,230 816,261 815,262 815,267 816,268 816,282 817,283 817,286 816,287 816,323 817,324 817,328 816,329 816,361 817,362 817,366 816,367 816,374 817,375 817,377 816,378 816,379 815,380 815,381 814,382 814,383 813,384 812,384 810,386 809,386 804,391 803,391 801,393 801,394 798,397 798,398 793,403 793,404 791,406 791,407 790,408 790,409 789,410 789,412 788,413 788,414 787,415 787,419 786,420 786,437 787,438 787,444 788,445 788,447 789,448 789,450 790,451 790,452 793,455 793,456 795,458 795,459 800,464 801,464 803,466 804,466 805,467 806,467 807,468 808,468 809,469 810,469 811,470 813,470 814,471 816,471 817,472 819,472 820,473 826,473 827,474 833,474 834,473 839,473 840,472 841,472 843,470 844,470 845,469 846,469 847,468 848,468 850,466 851,466 853,464 854,464 856,462 857,462 864,455 864,453 865,452 868,452 868,449 867,448 868,447 868,445 869,444 869,443 870,442 870,441 871,440 871,438 872,437 872,433 871,432 871,425 870,424 870,421 867,418 863,418 862,419 861,419 860,420 858,420 856,422 855,422 853,424 853,425 851,427 851,428 850,429 850,431 849,432 849,439 843,445 842,445 841,446 840,446 838,448 837,448 835,450 834,450 833,451 830,451 829,452 828,451 825,451 824,450 822,450 821,449 820,449 819,448 818,448 815,445 814,445 813,444 813,443 811,441 811,440 810,439 810,437 809,436 809,433 808,432 808,428 809,427 809,424 810,423 810,422 811,421 811,417 812,416 812,415 813,414 813,413 821,405 822,405 823,404 824,404 826,402 827,402 830,399 831,399 833,397 833,396 834,395 834,393 835,392 835,390 836,389 836,383 835,382 835,372 836,371 836,338 835,337 835,336 836,335 836,333 835,332 836,331 836,329 835,328 836,327 836,302 835,301 835,295 836,294 836,293 835,292 835,286 836,285 836,270 835,269 835,214 834,213 834,209 835,208 835,207 837,205 837,203 838,202 838,200 839,199 839,197 840,196 840,185 839,184 839,183 838,182 838,181 837,180 837,179 834,176 833,176 831,174 830,174 829,173" fill="none"/>
</svg>