<svg xmlns="http://www.w3.org/2000/svg" viewBox="0 0 220 300" width="220" height="300">
  <!-- Aro -->
  <circle cx="110" cy="45" r="30" fill="none" stroke="#000" stroke-width="8"/>
  <!-- Conector -->
  <rect x="95" y="70" width="30" height="20" fill="#000"/>
  <!-- Medallón -->
  <circle cx="110" cy="185" r="95" fill="#FFD733" stroke="#000" stroke-width="10"/>
  <!-- Logo oficial centrado dentro del medallón -->
  <g transform="translate(110,185) scale(1.4) translate(-50,-50)">
    <path d="M1191 2718 l0 -193 106 -90 c58 -49 111 -94 117 -100 65 -57 174
-153 188 -165 9 -8 57 -49 107 -90 49 -41 90 -78 90 -81 1 -4 -90 -97 -201
-208 l-203 -201 30 -26 c68 -58 291 -252 448 -390 l169 -147 94 94 c52 51 94
98 94 104 0 6 -50 53 -112 105 -88 75 -229 196 -300 259 -4 4 83 98 194 210
l202 203 -39 37 c-40 37 -593 527 -690 611 -92 79 -239 212 -263 236 -13 13
-25 24 -27 24 -3 0 -5 -87 -4 -192z m71 80 c7 -7 63 -56 123 -108 61 -52 119
-103 130 -115 11 -11 52 -47 90 -80 85 -73 76 -65 165 -145 99 -89 110 -98
175 -155 116 -100 205 -185 205 -196 0 -3 -46 -54 -102 -112 -233 -238 -258
-266 -258 -285 0 -17 32 -68 51 -82 20 -15 109 -91 152 -130 27 -25 61 -54 74
-65 14 -11 39 -32 56 -47 17 -16 34 -28 39 -28 4 0 8 -10 8 -21 0 -13 -26 -46
-66 -85 l-65 -64 -51 43 c-50 42 -221 191 -288 251 -19 18 -44 38 -56 46 -31
22 -184 166 -184 174 0 3 74 82 165 174 91 92 172 174 180 183 8 9 15 30 15
46 0 31 -26 58 -190 197 -27 23 -168 145 -186 161 -6 6 -39 35 -74 65 -35 30
-81 71 -102 91 l-38 37 0 108 c0 60 -3 119 -6 132 -7 25 15 31 38 10z"/>
  </g>

  <g transform="translate(110,185) scale(0.23076923076923078) translate(-318.0,-325.0)">
    <g fill="#000000" stroke="none">
  <path d="M 434.00,431.50 L 433.00,431.50 L 432.00,431.50 L 431.00,431.50 L 430.50,431.00 L 430.00,430.50 L 429.00,430.50 L 428.50,430.00 L 428.00,429.50 L 427.50,429.00 L 427.00,428.50 L 426.50,428.00 L 426.00,427.50 L 425.50,427.00 L 425.00,426.50 L 424.00,426.50 L 423.50,426.00 L 423.00,425.50 L 422.50,425.00 L 422.00,424.50 L 421.50,424.00 L 421.00,423.50 L 420.50,423.00 L 420.00,422.50 L 419.50,422.00 L 419.00,421.50 L 418.50,421.00 L 418.00,420.50 L 417.00,420.50 L 416.50,420.00 L 416.00,419.50 L 415.50,419.00 L 415.00,418.50 L 414.50,418.00 L 414.00,417.50 L 413.50,417.00 L 413.00,416.50 L 412.50,416.00 L 412.00,415.50 L 411.50,415.00 L 411.00,414.50 L 410.50,414.00 L 410.00,413.50 L 409.50,413.00 L 409.00,412.50 L 408.50,412.00 L 408.00,411.50 L 407.00,411.50 L 406.50,411.00 L 406.00,410.50 L 405.50,410.00 L 405.00,409.50 L 404.50,409.00 L 404.00,408.50 L 403.50,408.00 L 403.00,407.50 L 402.50,407.00 L 402.00,406.50 L 401.50,406.00 L 401.00,405.50 L 400.50,405.00 L 400.00,404.50 L 399.00,404.50 L 398.50,404.00 L 398.00,403.50 L 397.50,403.00 L 397.00,402.50 L 396.50,402.00 L 396.00,401.50 L 395.50,401.00 L 395.00,400.50 L 394.00,400.50 L 393.50,400.00 L 393.50,399.00 L 393.00,398.50 L 392.00,398.50 L 391.50,398.00 L 391.00,397.50 L 390.50,397.00 L 390.00,396.50 L 389.50,396.00 L 389.00,395.50 L 388.50,395.00 L 388.00,394.50 L 387.50,394.00 L 387.00,393.50 L 386.00,393.50 L 385.50,393.00 L 385.50,392.00 L 385.00,391.50 L 384.00,391.50 L 383.50,391.00 L 383.00,390.50 L 382.50,390.00 L 382.00,389.50 L 381.50,389.00 L 381.00,388.50 L 380.50,388.00 L 380.00,387.50 L 379.50,387.00 L 379.00,386.50 L 378.50,386.00 L 378.00,385.50 L 377.00,385.50 L 376.50,385.00 L 376.00,384.50 L 375.50,384.00 L 375.00,383.50 L 374.50,383.00 L 374.00,382.50 L 373.50,382.00 L 373.00,381.50 L 372.50,381.00 L 372.00,380.50 L 371.50,380.00 L 371.00,379.50 L 370.00,379.50 L 369.50,379.00 L 369.50,378.00 L 369.00,377.50 L 368.00,377.50 L 367.50,377.00 L 367.00,376.50 L 366.50,376.00 L 366.00,375.50 L 365.50,375.00 L 365.00,374.50 L 364.50,374.00 L 364.00,373.50 L 363.00,373.50 L 362.50,373.00 L 362.50,372.00 L 362.00,371.50 L 361.00,371.50 L 360.50,371.00 L 360.00,370.50 L 359.50,370.00 L 359.00,369.50 L 358.50,369.00 L 358.00,368.50 L 357.50,368.00 L 357.00,367.50 L 356.00,367.50 L 355.50,367.00 L 355.50,366.00 L 355.00,365.50 L 354.50,365.00 L 354.00,364.50 L 353.50,364.00 L 353.00,363.50 L 352.00,363.50 L 351.50,363.00 L 351.00,362.50 L 350.50,362.00 L 350.00,361.50 L 349.50,361.00 L 349.00,360.50 L 348.50,360.00 L 348.00,359.50 L 347.50,359.00 L 347.00,358.50 L 346.00,358.50 L 345.50,358.00 L 345.00,357.50 L 344.50,357.00 L 344.00,356.50 L 343.50,356.00 L 343.00,355.50 L 342.50,355.00 L 342.00,354.50 L 341.50,354.00 L 341.00,353.50 L 340.00,353.50 L 339.50,353.00 L 339.50,352.00 L 339.00,351.50 L 338.00,351.50 L 337.50,351.00 L 337.00,350.50 L 336.50,350.00 L 336.00,349.50 L 335.50,349.00 L 335.00,348.50 L 334.50,348.00 L 334.00,347.50 L 333.00,347.50 L 332.50,347.00 L 332.00,346.50 L 331.50,346.00 L 331.00,345.50 L 330.50,345.00 L 330.00,344.50 L 329.50,344.00 L 329.00,343.50 L 328.50,343.00 L 328.00,342.50 L 327.50,342.00 L 327.00,341.50 L 326.50,341.00 L 326.00,340.50 L 325.50,340.00 L 325.00,339.50 L 324.00,339.50 L 323.50,339.00 L 323.50,338.00 L 323.00,337.50 L 322.50,337.00 L 322.00,336.50 L 321.00,336.50 L 320.50,336.00 L 320.00,335.50 L 319.50,335.00 L 319.00,334.50 L 318.50,334.00 L 318.00,333.50 L 317.00,333.50 L 316.50,333.00 L 316.00,332.50 L 315.50,332.00 L 315.50,331.00 L 315.00,330.50 L 314.00,330.50 L 313.50,330.00 L 313.00,329.50 L 312.50,329.00 L 312.00,328.50 L 311.50,328.00 L 311.00,327.50 L 310.50,327.00 L 310.00,326.50 L 309.50,326.00 L 309.00,325.50 L 308.50,325.00 L 308.00,324.50 L 307.50,324.00 L 307.00,323.50 L 306.00,323.50 L 305.50,323.00 L 305.00,322.50 L 304.50,322.00 L 304.00,321.50 L 303.50,321.00 L 303.00,320.50 L 302.50,320.00 L 302.00,319.50 L 301.50,319.00 L 301.00,318.50 L 300.00,318.50 L 299.50,318.00 L 299.50,317.00 L 299.00,316.50 L 298.00,316.50 L 297.50,316.00 L 297.00,315.50 L 296.50,315.00 L 296.00,314.50 L 295.50,314.00 L 295.50,313.00 L 295.50,312.00 L 296.00,311.50 L 296.50,311.00 L 296.50,310.00 L 297.00,309.50 L 297.50,309.00 L 298.00,308.50 L 298.50,308.00 L 299.00,307.50 L 299.50,307.00 L 300.00,306.50 L 301.00,306.50 L 301.50,306.00 L 301.50,305.00 L 302.00,304.50 L 302.50,304.00 L 303.00,303.50 L 303.50,303.00 L 304.00,302.50 L 305.00,302.50 L 305.50,302.00 L 306.00,301.50 L 306.50,301.00 L 306.50,300.00 L 307.00,299.50 L 308.00,299.50 L 308.50,299.00 L 308.50,298.00 L 309.00,297.50 L 310.00,297.50 L 310.50,297.00 L 311.00,296.50 L 311.50,296.00 L 311.50,295.00 L 312.00,294.50 L 313.00,294.50 L 313.50,294.00 L 313.50,293.00 L 314.00,292.50 L 315.00,292.50 L 315.50,292.00 L 315.50,291.00 L 316.00,290.50 L 316.50,290.00 L 317.00,289.50 L 318.00,289.50 L 318.50,289.00 L 318.50,288.00 L 319.00,287.50 L 320.00,287.50 L 320.50,287.00 L 321.00,286.50 L 321.50,286.00 L 322.00,285.50 L 322.50,285.00 L 323.00,284.50 L 323.50,284.00 L 324.00,283.50 L 324.50,283.00 L 325.00,282.50 L 325.50,282.00 L 325.50,281.00 L 326.00,280.50 L 327.00,280.50 L 327.50,280.00 L 328.00,279.50 L 328.50,279.00 L 329.00,278.50 L 329.50,278.00 L 329.50,277.00 L 330.00,276.50 L 331.00,276.50 L 331.50,276.00 L 331.50,275.00 L 332.00,274.50 L 332.50,274.00 L 333.00,273.50 L 334.00,273.50 L 334.50,273.00 L 335.00,272.50 L 335.50,272.00 L 336.00,271.50 L 336.50,271.00 L 336.50,270.00 L 337.00,269.50 L 337.50,269.00 L 338.00,268.50 L 338.50,268.00 L 339.00,267.50 L 339.50,267.00 L 340.00,266.50 L 341.00,266.50 L 341.50,266.00 L 341.50,265.00 L 342.00,264.50 L 343.00,264.50 L 343.50,264.00 L 344.00,263.50 L 344.50,263.00 L 344.50,262.00 L 345.00,261.50 L 346.00,261.50 L 346.50,261.00 L 346.50,260.00 L 347.00,259.50 L 348.00,259.50 L 348.50,259.00 L 349.00,258.50 L 349.50,258.00 L 350.00,257.50 L 350.50,257.00 L 351.00,256.50 L 351.50,256.00 L 352.00,255.50 L 352.50,255.00 L 353.00,254.50 L 353.50,254.00 L 354.00,253.50 L 354.50,253.00 L 355.00,252.50 L 355.50,252.00 L 356.00,251.50 L 356.50,251.00 L 357.00,250.50 L 357.50,250.00 L 358.00,249.50 L 358.50,249.00 L 358.50,248.00 L 359.00,247.50 L 360.00,247.50 L 360.50,247.00 L 361.00,246.50 L 361.50,246.00 L 362.00,245.50 L 362.50,245.00 L 363.00,244.50 L 363.50,244.00 L 364.00,243.50 L 364.50,243.00 L 365.00,242.50 L 365.50,242.00 L 366.00,241.50 L 366.50,241.00 L 367.00,240.50 L 367.50,240.00 L 368.00,239.50 L 368.50,239.00 L 369.00,238.50 L 369.50,238.00 L 369.50,237.00 L 370.00,236.50 L 370.50,236.00 L 371.00,235.50 L 371.50,235.00 L 372.00,234.50 L 373.00,234.50 L 373.50,234.00 L 374.00,233.50 L 374.50,233.00 L 375.00,232.50 L 375.50,232.00 L 376.00,231.50 L 376.50,231.00 L 377.00,230.50 L 377.50,230.00 L 378.00,229.50 L 378.50,229.00 L 378.50,228.00 L 378.50,227.00 L 378.50,226.00 L 378.00,225.50 L 377.50,225.00 L 377.00,224.50 L 376.50,224.00 L 376.00,223.50 L 375.50,223.00 L 375.00,222.50 L 374.50,222.00 L 374.00,221.50 L 373.50,221.00 L 373.00,220.50 L 372.50,220.00 L 372.00,219.50 L 371.50,219.00 L 371.00,218.50 L 370.00,218.50 L 369.50,218.00 L 369.50,217.00 L 369.00,216.50 L 368.00,216.50 L 367.50,216.00 L 367.00,215.50 L 366.50,215.00 L 366.00,214.50 L 365.50,214.00 L 365.00,213.50 L 364.50,213.00 L 364.00,212.50 L 363.50,212.00 L 363.00,211.50 L 362.50,211.00 L 362.00,210.50 L 361.00,210.50 L 360.50,210.00 L 360.50,209.00 L 360.00,208.50 L 359.00,208.50 L 358.50,208.00 L 358.00,207.50 L 357.50,207.00 L 357.00,206.50 L 356.50,206.00 L 356.00,205.50 L 355.50,205.00 L 355.00,204.50 L 354.00,204.50 L 353.50,204.00 L 353.00,203.50 L 352.50,203.00 L 352.00,202.50 L 351.50,202.00 L 351.00,201.50 L 350.50,201.00 L 350.00,200.50 L 349.50,200.00 L 349.00,199.50 L 348.50,199.00 L 348.00,198.50 L 347.00,198.50 L 346.50,198.00 L 346.00,197.50 L 345.50,197.00 L 345.00,196.50 L 344.50,196.00 L 344.00,195.50 L 343.50,195.00 L 343.00,194.50 L 342.50,194.00 L 342.00,193.50 L 341.50,193.00 L 341.00,192.50 L 340.00,192.50 L 339.50,192.00 L 339.50,191.00 L 339.00,190.50 L 338.00,190.50 L 337.50,190.00 L 337.00,189.50 L 336.50,189.00 L 336.00,188.50 L 335.50,188.00 L 335.00,187.50 L 334.50,187.00 L 334.00,186.50 L 333.50,186.00 L 333.00,185.50 L 332.00,185.50 L 331.50,185.00 L 331.00,184.50 L 330.50,184.00 L 330.00,183.50 L 329.50,183.00 L 329.00,182.50 L 328.50,182.00 L 328.00,181.50 L 327.50,181.00 L 327.00,180.50 L 326.00,180.50 L 325.50,180.00 L 325.00,179.50 L 324.50,179.00 L 324.00,178.50 L 323.50,178.00 L 323.00,177.50 L 322.50,177.00 L 322.00,176.50 L 321.50,176.00 L 321.00,175.50 L 320.50,175.00 L 320.00,174.50 L 319.50,174.00 L 319.00,173.50 L 318.50,173.00 L 318.00,172.50 L 317.50,172.00 L 317.00,171.50 L 316.00,171.50 L 315.50,171.00 L 315.00,170.50 L 314.50,170.00 L 314.00,169.50 L 313.50,169.00 L 313.00,168.50 L 312.50,168.00 L 312.00,167.50 L 311.50,167.00 L 311.00,166.50 L 310.50,166.00 L 310.00,165.50 L 309.50,165.00 L 309.00,164.50 L 308.00,164.50 L 307.50,164.00 L 307.00,163.50 L 306.50,163.00 L 306.00,162.50 L 305.50,162.00 L 305.00,161.50 L 304.50,161.00 L 304.00,160.50 L 303.50,160.00 L 303.00,159.50 L 302.00,159.50 L 301.50,159.00 L 301.00,158.50 L 300.50,158.00 L 300.00,157.50 L 299.50,157.00 L 299.00,156.50 L 298.50,156.00 L 298.00,155.50 L 297.50,155.00 L 297.00,154.50 L 296.50,154.00 L 296.00,153.50 L 295.00,153.50 L 294.50,153.00 L 294.00,152.50 L 293.50,152.00 L 293.00,151.50 L 292.50,151.00 L 292.00,150.50 L 291.50,150.00 L 291.00,149.50 L 290.50,149.00 L 290.00,148.50 L 289.50,148.00 L 289.00,147.50 L 288.50,147.00 L 288.00,146.50 L 287.00,146.50 L 286.50,146.00 L 286.00,145.50 L 285.50,145.00 L 285.50,144.00 L 285.00,143.50 L 284.00,143.50 L 283.50,143.00 L 283.00,142.50 L 282.50,142.00 L 282.00,141.50 L 281.50,141.00 L 281.00,140.50 L 280.50,140.00 L 280.00,139.50 L 279.50,139.00 L 279.00,138.50 L 278.00,138.50 L 277.50,138.00 L 277.50,137.00 L 277.00,136.50 L 276.00,136.50 L 275.50,136.00 L 275.00,135.50 L 274.50,135.00 L 274.00,134.50 L 273.50,134.00 L 273.00,133.50 L 272.50,133.00 L 272.00,132.50 L 271.50,132.00 L 271.00,131.50 L 270.50,131.00 L 270.00,130.50 L 269.00,130.50 L 268.50,130.00 L 268.00,129.50 L 267.50,129.00 L 267.00,128.50 L 266.50,128.00 L 266.00,127.50 L 265.00,127.50 L 264.50,127.00 L 264.50,126.00 L 264.00,125.50 L 263.50,125.00 L 263.00,124.50 L 262.00,124.50 L 261.50,124.00 L 261.00,123.50 L 260.50,123.00 L 260.00,122.50 L 259.50,122.00 L 259.00,121.50 L 258.50,121.00 L 258.00,120.50 L 257.50,120.00 L 257.00,119.50 L 256.50,119.00 L 256.00,118.50 L 255.50,118.00 L 255.00,117.50 L 254.00,117.50 L 253.50,117.00 L 253.50,116.00 L 253.00,115.50 L 252.00,115.50 L 251.50,115.00 L 251.00,114.50 L 250.50,114.00 L 250.50,113.00 L 250.50,112.00 L 250.50,111.00 L 250.50,110.00 L 250.50,109.00 L 250.50,108.00 L 250.50,107.00 L 250.50,106.00 L 250.50,105.00 L 250.50,104.00 L 250.50,103.00 L 250.50,102.00 L 250.50,101.00 L 250.50,100.00 L 250.50,99.00 L 250.50,98.00 L 250.50,97.00 L 250.50,96.00 L 250.50,95.00 L 250.50,94.00 L 250.50,93.00 L 250.50,92.00 L 250.50,91.00 L 250.50,90.00 L 250.50,89.00 L 250.50,88.00 L 250.50,87.00 L 250.50,86.00 L 250.50,85.00 L 250.50,84.00 L 250.50,83.00 L 250.50,82.00 L 250.50,81.00 L 250.50,80.00 L 250.50,79.00 L 250.50,78.00 L 250.50,77.00 L 250.50,76.00 L 250.50,75.00 L 250.50,74.00 L 250.50,73.00 L 250.50,72.00 L 250.50,71.00 L 250.50,70.00 L 250.50,69.00 L 250.50,68.00 L 250.50,67.00 L 250.50,66.00 L 250.50,65.00 L 250.50,64.00 L 250.50,63.00 L 250.50,62.00 L 250.50,61.00 L 250.50,60.00 L 250.50,59.00 L 250.50,58.00 L 250.50,57.00 L 250.50,56.00 L 250.50,55.00 L 250.50,54.00 L 250.50,53.00 L 250.50,52.00 L 250.50,51.00 L 250.50,50.00 L 250.50,49.00 L 250.50,48.00 L 250.50,47.00 L 250.50,46.00 L 250.50,45.00 L 250.50,44.00 L 250.50,43.00 L 250.50,42.00 L 250.50,41.00 L 250.50,40.00 L 250.50,39.00 L 250.50,38.00 L 250.50,37.00 L 250.50,36.00 L 251.00,35.50 L 251.50,35.00 L 252.00,34.50 L 253.00,34.50 L 254.00,34.50 L 254.50,35.00 L 255.00,35.50 L 256.00,35.50 L 257.00,35.50 L 257.50,36.00 L 257.50,37.00 L 258.00,37.50 L 259.00,37.50 L 259.50,38.00 L 260.00,38.50 L 260.50,39.00 L 260.50,40.00 L 261.00,40.50 L 262.00,40.50 L 262.50,41.00 L 263.00,41.50 L 263.50,42.00 L 264.00,42.50 L 264.50,43.00 L 265.00,43.50 L 265.50,44.00 L 266.00,44.50 L 266.50,45.00 L 267.00,45.50 L 268.00,45.50 L 268.50,46.00 L 269.00,46.50 L 269.50,47.00 L 270.00,47.50 L 270.50,48.00 L 271.00,48.50 L 271.50,49.00 L 272.00,49.50 L 272.50,50.00 L 273.00,50.50 L 273.50,51.00 L 274.00,51.50 L 274.50,52.00 L 275.00,52.50 L 276.00,52.50 L 276.50,53.00 L 276.50,54.00 L 277.00,54.50 L 278.00,54.50 L 278.50,55.00 L 279.00,55.50 L 279.50,56.00 L 280.00,56.50 L 280.50,57.00 L 281.00,57.50 L 281.50,58.00 L 282.00,58.50 L 282.50,59.00 L 283.00,59.50 L 283.50,60.00 L 284.00,60.50 L 285.00,60.50 L 285.50,61.00 L 286.00,61.50 L 286.50,62.00 L 286.50,63.00 L 287.00,63.50 L 288.00,63.50 L 288.50,64.00 L 289.00,64.50 L 289.50,65.00 L 290.00,65.50 L 290.50,66.00 L 291.00,66.50 L 291.50,67.00 L 292.00,67.50 L 292.50,68.00 L 293.00,68.50 L 294.00,68.50 L 294.50,69.00 L 295.00,69.50 L 295.50,70.00 L 296.00,70.50 L 296.50,71.00 L 297.00,71.50 L 297.50,72.00 L 298.00,72.50 L 298.50,73.00 L 299.00,73.50 L 299.50,74.00 L 300.00,74.50 L 300.50,75.00 L 301.00,75.50 L 302.00,75.50 L 302.50,76.00 L 302.50,77.00 L 303.00,77.50 L 304.00,77.50 L 304.50,78.00 L 305.00,78.50 L 305.50,79.00 L 306.00,79.50 L 306.50,80.00 L 307.00,80.50 L 307.50,81.00 L 308.00,81.50 L 308.50,82.00 L 309.00,82.50 L 309.50,83.00 L 310.00,83.50 L 310.50,84.00 L 311.00,84.50 L 312.00,84.50 L 312.50,85.00 L 313.00,85.50 L 313.50,86.00 L 314.00,86.50 L 314.50,87.00 L 315.00,87.50 L 315.50,88.00 L 316.00,88.50 L 316.50,89.00 L 317.00,89.50 L 317.50,90.00 L 318.00,90.50 L 318.50,91.00 L 319.00,91.50 L 320.00,91.50 L 320.50,92.00 L 320.50,93.00 L 321.00,93.50 L 322.00,93.50 L 322.50,94.00 L 323.00,94.50 L 323.50,95.00 L 324.00,95.50 L 324.50,96.00 L 325.00,96.50 L 325.50,97.00 L 326.00,97.50 L 326.50,98.00 L 327.00,98.50 L 327.50,99.00 L 328.00,99.50 L 328.50,100.00 L 329.00,100.50 L 329.50,101.00 L 330.00,101.50 L 331.00,101.50 L 331.50,102.00 L 332.00,102.50 L 332.50,103.00 L 333.00,103.50 L 333.50,104.00 L 334.00,104.50 L 334.50,105.00 L 335.00,105.50 L 335.50,106.00 L 336.00,106.50 L 336.50,107.00 L 337.00,107.50 L 337.50,108.00 L 338.00,108.50 L 339.00,108.50 L 339.50,109.00 L 339.50,110.00 L 340.00,110.50 L 341.00,110.50 L 341.50,111.00 L 342.00,111.50 L 342.50,112.00 L 343.00,112.50 L 343.50,113.00 L 344.00,113.50 L 344.50,114.00 L 345.00,114.50 L 346.00,114.50 L 346.50,115.00 L 347.00,115.50 L 347.50,116.00 L 348.00,116.50 L 348.50,117.00 L 349.00,117.50 L 349.50,118.00 L 350.00,118.50 L 350.50,119.00 L 351.00,119.50 L 351.50,120.00 L 352.00,120.50 L 353.00,120.50 L 353.50,121.00 L 354.00,121.50 L 354.50,122.00 L 354.50,123.00 L 355.00,123.50 L 355.50,124.00 L 356.00,124.50 L 357.00,124.50 L 357.50,125.00 L 358.00,125.50 L 358.50,126.00 L 359.00,126.50 L 359.50,127.00 L 360.00,127.50 L 360.50,128.00 L 361.00,128.50 L 361.50,129.00 L 362.00,129.50 L 362.50,130.00 L 363.00,130.50 L 363.50,131.00 L 364.00,131.50 L 365.00,131.50 L 365.50,132.00 L 365.50,133.00 L 366.00,133.50 L 367.00,133.50 L 367.50,134.00 L 368.00,134.50 L 368.50,135.00 L 369.00,135.50 L 369.50,136.00 L 370.00,136.50 L 370.50,137.00 L 371.00,137.50 L 371.50,138.00 L 372.00,138.50 L 373.00,138.50 L 373.50,139.00 L 374.00,139.50 L 374.50,140.00 L 375.00,140.50 L 375.50,141.00 L 376.00,141.50 L 376.50,142.00 L 377.00,142.50 L 377.50,143.00 L 378.00,143.50 L 378.50,144.00 L 379.00,144.50 L 379.50,145.00 L 380.00,145.50 L 380.50,146.00 L 381.00,146.50 L 382.00,146.50 L 382.50,147.00 L 383.00,147.50 L 383.50,148.00 L 384.00,148.50 L 384.50,149.00 L 385.00,149.50 L 385.50,150.00 L 386.00,150.50 L 386.50,151.00 L 387.00,151.50 L 387.50,152.00 L 388.00,152.50 L 389.00,152.50 L 389.50,153.00 L 389.50,154.00 L 390.00,154.50 L 390.50,155.00 L 391.00,155.50 L 392.00,155.50 L 392.50,156.00 L 393.00,156.50 L 393.50,157.00 L 394.00,157.50 L 394.50,158.00 L 395.00,158.50 L 395.50,159.00 L 396.00,159.50 L 396.50,160.00 L 397.00,160.50 L 397.50,161.00 L 398.00,161.50 L 399.00,161.50 L 399.50,162.00 L 400.00,162.50 L 400.50,163.00 L 401.00,163.50 L 401.50,164.00 L 402.00,164.50 L 402.50,165.00 L 403.00,165.50 L 403.50,166.00 L 404.00,166.50 L 404.50,167.00 L 405.00,167.50 L 405.50,168.00 L 406.00,168.50 L 407.00,168.50 L 407.50,169.00 L 408.00,169.50 L 408.50,170.00 L 409.00,170.50 L 409.50,171.00 L 410.00,171.50 L 410.50,172.00 L 411.00,172.50 L 411.50,173.00 L 412.00,173.50 L 412.50,174.00 L 413.00,174.50 L 413.50,175.00 L 414.00,175.50 L 414.50,176.00 L 415.00,176.50 L 416.00,176.50 L 416.50,177.00 L 417.00,177.50 L 417.50,178.00 L 418.00,178.50 L 418.50,179.00 L 419.00,179.50 L 419.50,180.00 L 420.00,180.50 L 420.50,181.00 L 421.00,181.50 L 421.50,182.00 L 422.00,182.50 L 422.50,183.00 L 423.00,183.50 L 423.50,184.00 L 424.00,184.50 L 425.00,184.50 L 425.50,185.00 L 426.00,185.50 L 426.50,186.00 L 427.00,186.50 L 427.50,187.00 L 428.00,187.50 L 428.50,188.00 L 429.00,188.50 L 429.50,189.00 L 430.00,189.50 L 430.50,190.00 L 431.00,190.50 L 431.50,191.00 L 432.00,191.50 L 433.00,191.50 L 433.50,192.00 L 434.00,192.50 L 434.50,193.00 L 435.00,193.50 L 435.50,194.00 L 436.00,194.50 L 436.50,195.00 L 437.00,195.50 L 437.50,196.00 L 438.00,196.50 L 438.50,197.00 L 439.00,197.50 L 439.50,198.00 L 440.00,198.50 L 440.50,199.00 L 441.00,199.50 L 442.00,199.50 L 442.50,200.00 L 443.00,200.50 L 443.50,201.00 L 444.00,201.50 L 444.50,202.00 L 445.00,202.50 L 445.50,203.00 L 446.00,203.50 L 446.50,204.00 L 447.00,204.50 L 447.50,205.00 L 448.00,205.50 L 448.50,206.00 L 449.00,206.50 L 449.50,207.00 L 450.00,207.50 L 450.50,208.00 L 451.00,208.50 L 452.00,208.50 L 452.50,209.00 L 453.00,209.50 L 453.50,210.00 L 454.00,210.50 L 454.50,211.00 L 455.00,211.50 L 455.50,212.00 L 456.00,212.50 L 456.50,213.00 L 457.00,213.50 L 457.50,214.00 L 458.00,214.50 L 458.50,215.00 L 459.00,215.50 L 459.50,216.00 L 460.00,216.50 L 460.50,217.00 L 461.00,217.50 L 461.50,218.00 L 462.00,218.50 L 463.00,218.50 L 463.50,219.00 L 464.00,219.50 L 464.50,220.00 L 465.00,220.50 L 465.50,221.00 L 466.00,221.50 L 466.50,222.00 L 467.00,222.50 L 467.50,223.00 L 468.00,223.50 L 468.50,224.00 L 468.50,225.00 L 468.50,226.00 L 468.50,227.00 L 468.00,227.50 L 467.50,228.00 L 467.00,228.50 L 466.50,229.00 L 466.00,229.50 L 465.50,230.00 L 465.00,230.50 L 464.50,231.00 L 464.00,231.50 L 463.50,232.00 L 463.00,232.50 L 462.50,233.00 L 462.00,233.50 L 461.50,234.00 L 461.00,234.50 L 460.50,235.00 L 460.00,235.50 L 459.50,236.00 L 459.00,236.50 L 458.50,237.00 L 458.00,237.50 L 457.50,238.00 L 457.00,238.50 L 456.50,239.00 L 456.00,239.50 L 455.50,240.00 L 455.00,240.50 L 454.50,241.00 L 454.00,241.50 L 453.50,242.00 L 453.00,242.50 L 452.50,243.00 L 452.00,243.50 L 451.50,244.00 L 451.00,244.50 L 450.50,245.00 L 450.00,245.50 L 449.50,246.00 L 449.00,246.50 L 448.50,247.00 L 448.00,247.50 L 447.50,248.00 L 447.00,248.50 L 446.50,249.00 L 446.00,249.50 L 445.50,250.00 L 445.00,250.50 L 444.50,251.00 L 444.00,251.50 L 443.50,252.00 L 443.00,252.50 L 442.50,253.00 L 442.00,253.50 L 441.50,254.00 L 441.00,254.50 L 440.50,255.00 L 440.00,255.50 L 439.50,256.00 L 439.00,256.50 L 438.50,257.00 L 438.50,258.00 L 438.00,258.50 L 437.00,258.50 L 436.50,259.00 L 436.00,259.50 L 435.50,260.00 L 435.00,260.50 L 434.50,261.00 L 434.00,261.50 L 433.50,262.00 L 433.00,262.50 L 432.50,263.00 L 432.00,263.50 L 431.50,264.00 L 431.00,264.50 L 430.50,265.00 L 430.00,265.50 L 429.50,266.00 L 429.00,266.50 L 428.50,267.00 L 428.00,267.50 L 427.50,268.00 L 427.00,268.50 L 426.50,269.00 L 426.50,270.00 L 426.00,270.50 L 425.50,271.00 L 425.00,271.50 L 424.00,271.50 L 423.50,272.00 L 423.50,273.00 L 423.00,273.50 L 422.00,273.50 L 421.50,274.00 L 421.50,275.00 L 421.00,275.50 L 420.00,275.50 L 419.50,276.00 L 419.50,277.00 L 419.00,277.50 L 418.00,277.50 L 417.50,278.00 L 417.50,279.00 L 417.00,279.50 L 416.00,279.50 L 415.50,280.00 L 415.50,281.00 L 415.00,281.50 L 414.50,282.00 L 414.00,282.50 L 413.50,283.00 L 413.00,283.50 L 412.50,284.00 L 412.00,284.50 L 411.00,284.50 L 410.50,285.00 L 410.50,286.00 L 410.00,286.50 L 409.00,286.50 L 408.50,287.00 L 408.50,288.00 L 408.00,288.50 L 407.50,289.00 L 407.00,289.50 L 406.50,290.00 L 406.00,290.50 L 405.50,291.00 L 405.00,291.50 L 404.50,292.00 L 404.00,292.50 L 403.50,293.00 L 403.00,293.50 L 402.50,294.00 L 402.00,294.50 L 401.50,295.00 L 401.00,295.50 L 400.50,296.00 L 400.00,296.50 L 399.50,297.00 L 399.00,297.50 L 398.50,298.00 L 398.00,298.50 L 397.50,299.00 L 397.00,299.50 L 396.50,300.00 L 396.00,300.50 L 395.50,301.00 L 395.00,301.50 L 394.50,302.00 L 394.00,302.50 L 393.50,303.00 L 393.00,303.50 L 392.50,304.00 L 392.00,304.50 L 391.50,305.00 L 391.00,305.50 L 390.50,306.00 L 390.00,306.50 L 389.50,307.00 L 389.00,307.50 L 388.50,308.00 L 388.00,308.50 L 387.50,309.00 L 387.00,309.50 L 386.50,310.00 L 386.50,311.00 L 386.50,312.00 L 386.50,313.00 L 387.00,313.50 L 387.50,314.00 L 388.00,314.50 L 388.50,315.00 L 389.00,315.50 L 390.00,315.50 L 390.50,316.00 L 391.00,316.50 L 391.50,317.00 L 392.00,317.50 L 392.50,318.00 L 393.00,318.50 L 393.50,319.00 L 394.00,319.50 L 394.50,320.00 L 395.00,320.50 L 395.50,321.00 L 396.00,321.50 L 397.00,321.50 L 397.50,322.00 L 398.00,322.50 L 398.50,323.00 L 399.00,323.50 L 399.50,324.00 L 400.00,324.50 L 400.50,325.00 L 401.00,325.50 L 401.50,326.00 L 402.00,326.50 L 402.50,327.00 L 403.00,327.50 L 403.50,328.00 L 404.00,328.50 L 405.00,328.50 L 405.50,329.00 L 406.00,329.50 L 406.50,330.00 L 407.00,330.50 L 407.50,331.00 L 408.00,331.50 L 408.50,332.00 L 409.00,332.50 L 409.50,333.00 L 410.00,333.50 L 410.50,334.00 L 411.00,334.50 L 411.50,335.00 L 412.00,335.50 L 412.50,336.00 L 413.00,336.50 L 414.00,336.50 L 414.50,337.00 L 415.00,337.50 L 415.50,338.00 L 416.00,338.50 L 416.50,339.00 L 417.00,339.50 L 418.00,339.50 L 418.50,340.00 L 419.00,340.50 L 419.50,341.00 L 420.00,341.50 L 420.50,342.00 L 421.00,342.50 L 421.50,343.00 L 422.00,343.50 L 422.50,344.00 L 423.00,344.50 L 423.50,345.00 L 424.00,345.50 L 424.50,346.00 L 425.00,346.50 L 425.50,347.00 L 426.00,347.50 L 426.50,348.00 L 427.00,348.50 L 428.00,348.50 L 428.50,349.00 L 429.00,349.50 L 429.50,350.00 L 430.00,350.50 L 430.50,351.00 L 431.00,351.50 L 431.50,352.00 L 432.00,352.50 L 432.50,353.00 L 433.00,353.50 L 434.00,353.50 L 434.50,354.00 L 434.50,355.00 L 435.00,355.50 L 436.00,355.50 L 436.50,356.00 L 437.00,356.50 L 437.50,357.00 L 438.00,357.50 L 438.50,358.00 L 439.00,358.50 L 440.00,358.50 L 440.50,359.00 L 440.50,360.00 L 441.00,360.50 L 441.50,361.00 L 442.00,361.50 L 442.50,362.00 L 443.00,362.50 L 444.00,362.50 L 444.50,363.00 L 445.00,363.50 L 445.50,364.00 L 446.00,364.50 L 446.50,365.00 L 447.00,365.50 L 447.50,366.00 L 447.50,367.00 L 448.00,367.50 L 449.00,367.50 L 449.50,368.00 L 450.00,368.50 L 451.00,368.50 L 451.50,369.00 L 452.00,369.50 L 452.50,370.00 L 453.00,370.50 L 453.50,371.00 L 454.00,371.50 L 454.50,372.00 L 455.00,372.50 L 456.00,372.50 L 456.50,373.00 L 456.50,374.00 L 457.00,374.50 L 458.00,374.50 L 458.50,375.00 L 459.00,375.50 L 459.50,376.00 L 460.00,376.50 L 460.50,377.00 L 461.00,377.50 L 462.00,377.50 L 462.50,378.00 L 463.00,378.50 L 463.50,379.00 L 464.00,379.50 L 464.50,380.00 L 465.00,380.50 L 465.50,381.00 L 466.00,381.50 L 466.50,382.00 L 467.00,382.50 L 467.50,383.00 L 468.00,383.50 L 468.50,384.00 L 469.00,384.50 L 470.00,384.50 L 470.50,385.00 L 471.00,385.50 L 471.50,386.00 L 472.00,386.50 L 472.50,387.00 L 472.50,388.00 L 472.50,389.00 L 472.50,390.00 L 472.50,391.00 L 472.50,392.00 L 472.50,393.00 L 472.00,393.50 L 471.50,394.00 L 471.00,394.50 L 470.50,395.00 L 470.00,395.50 L 469.00,395.50 L 468.50,396.00 L 468.50,397.00 L 468.00,397.50 L 467.50,398.00 L 467.00,398.50 L 466.50,399.00 L 466.00,399.50 L 465.50,400.00 L 465.00,400.50 L 464.50,401.00 L 464.00,401.50 L 463.50,402.00 L 463.00,402.50 L 462.50,403.00 L 462.00,403.50 L 461.50,404.00 L 461.00,404.50 L 460.50,405.00 L 460.00,405.50 L 459.50,406.00 L 459.00,406.50 L 458.50,407.00 L 458.00,407.50 L 457.50,408.00 L 457.00,408.50 L 456.50,409.00 L 456.00,409.50 L 455.50,410.00 L 455.00,410.50 L 454.50,411.00 L 454.00,411.50 L 453.50,412.00 L 453.00,412.50 L 452.50,413.00 L 452.00,413.50 L 451.50,414.00 L 451.00,414.50 L 450.50,415.00 L 450.00,415.50 L 449.50,416.00 L 449.00,416.50 L 448.50,417.00 L 448.00,417.50 L 447.50,418.00 L 447.00,418.50 L 446.50,419.00 L 446.00,419.50 L 445.50,420.00 L 445.00,420.50 L 444.50,421.00 L 444.50,422.00 L 444.00,422.50 L 443.00,422.50 L 442.50,423.00 L 442.00,423.50 L 441.50,424.00 L 441.00,424.50 L 440.50,425.00 L 440.00,425.50 L 439.50,426.00 L 439.00,426.50 L 438.50,427.00 L 438.00,427.50 L 437.50,428.00 L 437.00,428.50 L 436.50,429.00 L 436.00,429.50 L 435.50,430.00 L 435.00,430.50 L 434.50,431.00 L 434.00,431.50 Z"/>
  <path d="M 257.00,436.50 L 256.00,436.50 L 255.50,436.00 L 255.00,435.50 L 254.00,435.50 L 253.50,435.00 L 253.50,434.00 L 253.00,433.50 L 252.00,433.50 L 251.50,433.00 L 251.00,432.50 L 250.50,432.00 L 250.00,431.50 L 249.50,431.00 L 249.00,430.50 L 248.50,430.00 L 248.00,429.50 L 247.50,429.00 L 247.00,428.50 L 246.00,428.50 L 245.50,428.00 L 245.00,427.50 L 244.50,427.00 L 244.00,426.50 L 243.50,426.00 L 243.00,425.50 L 242.50,425.00 L 242.00,424.50 L 241.50,424.00 L 241.00,423.50 L 240.00,423.50 L 239.50,423.00 L 239.00,422.50 L 238.50,422.00 L 238.50,421.00 L 238.00,420.50 L 237.50,420.00 L 237.00,419.50 L 236.00,419.50 L 235.50,419.00 L 235.00,418.50 L 234.50,418.00 L 234.00,417.50 L 233.50,417.00 L 233.00,416.50 L 232.50,416.00 L 232.00,415.50 L 231.50,415.00 L 231.00,414.50 L 230.00,414.50 L 229.50,414.00 L 229.00,413.50 L 228.50,413.00 L 228.00,412.50 L 227.50,412.00 L 227.00,411.50 L 226.50,411.00 L 226.00,410.50 L 225.50,410.00 L 225.00,409.50 L 224.50,409.00 L 224.00,408.50 L 223.50,408.00 L 223.00,407.50 L 222.00,407.50 L 221.50,407.00 L 221.00,406.50 L 220.50,406.00 L 220.00,405.50 L 219.50,405.00 L 219.00,404.50 L 218.50,404.00 L 218.00,403.50 L 217.50,403.00 L 217.00,402.50 L 216.50,402.00 L 216.00,401.50 L 215.50,401.00 L 215.00,400.50 L 214.00,400.50 L 213.50,400.00 L 213.50,399.00 L 213.00,398.50 L 212.00,398.50 L 211.50,398.00 L 211.00,397.50 L 210.50,397.00 L 210.00,396.50 L 209.50,396.00 L 209.00,395.50 L 208.50,395.00 L 208.00,394.50 L 207.00,394.50 L 206.50,394.00 L 206.00,393.50 L 205.50,393.00 L 205.50,392.00 L 205.00,391.50 L 204.00,391.50 L 203.50,391.00 L 203.00,390.50 L 202.50,390.00 L 202.00,389.50 L 201.50,389.00 L 201.00,388.50 L 200.50,388.00 L 200.00,387.50 L 199.50,387.00 L 199.00,386.50 L 198.00,386.50 L 197.50,386.00 L 197.50,385.00 L 197.00,384.50 L 196.00,384.50 L 195.50,384.00 L 195.00,383.50 L 194.50,383.00 L 194.00,382.50 L 193.50,382.00 L 193.00,381.50 L 192.50,381.00 L 192.00,380.50 L 191.50,380.00 L 191.00,379.50 L 190.50,379.00 L 190.00,378.50 L 189.50,378.00 L 189.00,377.50 L 188.00,377.50 L 187.50,377.00 L 187.00,376.50 L 186.50,376.00 L 186.00,375.50 L 185.50,375.00 L 185.00,374.50 L 184.50,374.00 L 184.00,373.50 L 183.50,373.00 L 183.00,372.50 L 182.50,372.00 L 182.00,371.50 L 181.50,371.00 L 181.00,370.50 L 180.00,370.50 L 179.50,370.00 L 179.00,369.50 L 178.50,369.00 L 178.00,368.50 L 177.50,368.00 L 177.00,367.50 L 176.50,367.00 L 176.00,366.50 L 175.50,366.00 L 175.00,365.50 L 174.50,365.00 L 174.00,364.50 L 173.50,364.00 L 173.00,363.50 L 172.50,363.00 L 172.00,362.50 L 171.50,362.00 L 171.00,361.50 L 170.00,361.50 L 169.50,361.00 L 169.00,360.50 L 168.50,360.00 L 168.00,359.50 L 167.50,359.00 L 167.00,358.50 L 166.50,358.00 L 166.00,357.50 L 165.00,357.50 L 164.50,357.00 L 164.00,356.50 L 163.50,356.00 L 163.00,355.50 L 162.50,355.00 L 162.00,354.50 L 161.50,354.00 L 161.00,353.50 L 160.50,353.00 L 160.00,352.50 L 159.50,352.00 L 159.00,351.50 L 158.50,351.00 L 158.00,350.50 L 157.50,350.00 L 157.00,349.50 L 156.50,349.00 L 156.00,348.50 L 155.50,348.00 L 155.00,347.50 L 154.00,347.50 L 153.50,347.00 L 153.00,346.50 L 152.50,346.00 L 152.00,345.50 L 151.50,345.00 L 151.00,344.50 L 150.50,344.00 L 150.00,343.50 L 149.50,343.00 L 149.00,342.50 L 148.50,342.00 L 148.00,341.50 L 147.50,341.00 L 147.00,340.50 L 146.00,340.50 L 145.50,340.00 L 145.00,339.50 L 144.50,339.00 L 144.00,338.50 L 143.50,338.00 L 143.00,337.50 L 142.50,337.00 L 142.00,336.50 L 141.50,336.00 L 141.00,335.50 L 140.50,335.00 L 140.00,334.50 L 139.50,334.00 L 139.00,333.50 L 138.00,333.50 L 137.50,333.00 L 137.00,332.50 L 136.50,332.00 L 136.50,331.00 L 136.00,330.50 L 135.00,330.50 L 134.50,330.00 L 134.00,329.50 L 133.50,329.00 L 133.00,328.50 L 132.50,328.00 L 132.00,327.50 L 131.50,327.00 L 131.00,326.50 L 130.50,326.00 L 130.00,325.50 L 129.00,325.50 L 128.50,325.00 L 128.50,324.00 L 128.00,323.50 L 127.50,323.00 L 127.00,322.50 L 126.50,322.00 L 126.00,321.50 L 125.00,321.50 L 124.50,321.00 L 124.00,320.50 L 123.50,320.00 L 123.50,319.00 L 123.50,318.00 L 123.50,317.00 L 124.00,316.50 L 124.50,316.00 L 125.00,315.50 L 125.50,315.00 L 126.00,314.50 L 126.50,314.00 L 127.00,313.50 L 127.50,313.00 L 128.00,312.50 L 128.50,312.00 L 129.00,311.50 L 129.50,311.00 L 130.00,310.50 L 130.50,310.00 L 131.00,309.50 L 131.50,309.00 L 132.00,308.50 L 132.50,308.00 L 133.00,307.50 L 133.50,307.00 L 134.00,306.50 L 134.50,306.00 L 135.00,305.50 L 135.50,305.00 L 136.00,304.50 L 136.50,304.00 L 137.00,303.50 L 137.50,303.00 L 138.00,302.50 L 138.50,302.00 L 139.00,301.50 L 139.50,301.00 L 140.00,300.50 L 140.50,300.00 L 141.00,299.50 L 141.50,299.00 L 142.00,298.50 L 142.50,298.00 L 142.50,297.00 L 143.00,296.50 L 143.50,296.00 L 144.00,295.50 L 144.50,295.00 L 145.00,294.50 L 145.50,294.00 L 146.00,293.50 L 147.00,293.50 L 147.50,293.00 L 148.00,292.50 L 148.50,292.00 L 149.00,291.50 L 149.50,291.00 L 150.00,290.50 L 150.50,290.00 L 150.50,289.00 L 151.00,288.50 L 152.00,288.50 L 152.50,288.00 L 152.50,287.00 L 153.00,286.50 L 154.00,286.50 L 154.50,286.00 L 154.50,285.00 L 155.00,284.50 L 155.50,284.00 L 156.00,283.50 L 156.50,283.00 L 157.00,282.50 L 157.50,282.00 L 158.00,281.50 L 158.50,281.00 L 159.00,280.50 L 159.50,280.00 L 160.00,279.50 L 161.00,279.50 L 161.50,279.00 L 161.50,278.00 L 162.00,277.50 L 162.50,277.00 L 163.00,276.50 L 163.50,276.00 L 164.00,275.50 L 164.50,275.00 L 165.00,274.50 L 165.50,274.00 L 166.00,273.50 L 166.50,273.00 L 167.00,272.50 L 167.50,272.00 L 168.00,271.50 L 168.50,271.00 L 169.00,270.50 L 169.50,270.00 L 170.00,269.50 L 170.50,269.00 L 171.00,268.50 L 171.50,268.00 L 172.00,267.50 L 172.50,267.00 L 173.00,266.50 L 173.50,266.00 L 174.00,265.50 L 174.50,265.00 L 175.00,264.50 L 175.50,264.00 L 176.00,263.50 L 176.50,263.00 L 177.00,262.50 L 177.50,262.00 L 178.00,261.50 L 178.50,261.00 L 179.00,260.50 L 179.50,260.00 L 180.00,259.50 L 180.50,259.00 L 181.00,258.50 L 181.50,258.00 L 182.00,257.50 L 182.50,257.00 L 183.00,256.50 L 183.50,256.00 L 184.00,255.50 L 184.50,255.00 L 185.00,254.50 L 185.50,254.00 L 186.00,253.50 L 186.50,253.00 L 187.00,252.50 L 187.50,252.00 L 188.00,251.50 L 188.50,251.00 L 189.00,250.50 L 189.50,250.00 L 190.00,249.50 L 190.50,249.00 L 191.00,248.50 L 191.50,248.00 L 192.00,247.50 L 192.50,247.00 L 193.00,246.50 L 193.50,246.00 L 194.00,245.50 L 194.50,245.00 L 195.00,244.50 L 195.50,244.00 L 196.00,243.50 L 196.50,243.00 L 197.00,242.50 L 197.50,242.00 L 198.00,241.50 L 198.50,241.00 L 199.00,240.50 L 199.50,240.00 L 200.00,239.50 L 200.50,239.00 L 201.00,238.50 L 201.50,238.00 L 202.00,237.50 L 202.50,237.00 L 203.00,236.50 L 203.50,236.00 L 204.00,235.50 L 204.50,235.00 L 205.00,234.50 L 205.50,234.00 L 206.00,233.50 L 206.50,233.00 L 206.50,232.00 L 207.00,231.50 L 208.00,231.50 L 208.50,231.00 L 209.00,230.50 L 209.50,230.00 L 210.00,229.50 L 210.50,229.00 L 211.00,228.50 L 211.50,228.00 L 212.00,227.50 L 212.50,227.00 L 213.00,226.50 L 213.50,226.00 L 213.50,225.00 L 214.00,224.50 L 215.00,224.50 L 215.50,224.00 L 215.50,223.00 L 216.00,222.50 L 217.00,222.50 L 217.50,222.00 L 217.50,221.00 L 218.00,220.50 L 218.50,220.00 L 219.00,219.50 L 219.50,219.00 L 220.00,218.50 L 221.00,218.50 L 221.50,218.00 L 222.00,217.50 L 222.50,217.00 L 222.50,216.00 L 223.00,215.50 L 224.00,215.50 L 224.50,215.00 L 224.50,214.00 L 225.00,213.50 L 226.00,213.50 L 226.50,213.00 L 226.50,212.00 L 227.00,211.50 L 227.50,211.00 L 228.00,210.50 L 228.50,210.00 L 229.00,209.50 L 229.50,209.00 L 230.00,208.50 L 231.00,208.50 L 231.50,208.00 L 231.50,207.00 L 232.00,206.50 L 232.50,206.00 L 233.00,205.50 L 233.50,205.00 L 234.00,204.50 L 234.50,204.00 L 235.00,203.50 L 236.00,203.50 L 236.50,203.00 L 236.50,202.00 L 237.00,201.50 L 238.00,201.50 L 238.50,201.00 L 238.50,200.00 L 239.00,199.50 L 239.50,199.00 L 240.00,198.50 L 240.50,198.00 L 241.00,197.50 L 241.50,197.00 L 242.00,196.50 L 242.50,196.00 L 243.00,195.50 L 243.50,195.00 L 244.00,194.50 L 244.50,194.00 L 245.00,193.50 L 245.50,193.00 L 246.00,192.50 L 246.50,192.00 L 247.00,191.50 L 247.50,191.00 L 248.00,190.50 L 248.50,190.00 L 249.00,189.50 L 250.00,189.50 L 251.00,189.50 L 252.00,189.50 L 252.50,190.00 L 253.00,190.50 L 253.50,191.00 L 254.00,191.50 L 254.50,192.00 L 255.00,192.50 L 256.00,192.50 L 256.50,193.00 L 257.00,193.50 L 257.50,194.00 L 258.00,194.50 L 258.50,195.00 L 258.50,196.00 L 259.00,196.50 L 260.00,196.50 L 260.50,197.00 L 261.00,197.50 L 261.50,198.00 L 262.00,198.50 L 262.50,199.00 L 263.00,199.50 L 264.00,199.50 L 264.50,200.00 L 264.50,201.00 L 265.00,201.50 L 266.00,201.50 L 266.50,202.00 L 267.00,202.50 L 267.50,203.00 L 268.00,203.50 L 268.50,204.00 L 269.00,204.50 L 269.50,205.00 L 270.00,205.50 L 270.50,206.00 L 271.00,206.50 L 272.00,206.50 L 272.50,207.00 L 272.50,208.00 L 273.00,208.50 L 274.00,208.50 L 274.50,209.00 L 275.00,209.50 L 275.50,210.00 L 276.00,210.50 L 276.50,211.00 L 277.00,211.50 L 277.50,212.00 L 278.00,212.50 L 278.50,213.00 L 279.00,213.50 L 280.00,213.50 L 280.50,214.00 L 280.50,215.00 L 281.00,215.50 L 281.50,216.00 L 282.00,216.50 L 283.00,216.50 L 283.50,217.00 L 284.00,217.50 L 284.50,218.00 L 285.00,218.50 L 285.50,219.00 L 286.00,219.50 L 286.50,220.00 L 287.00,220.50 L 288.00,220.50 L 288.50,221.00 L 288.50,222.00 L 289.00,222.50 L 290.00,222.50 L 290.50,223.00 L 291.00,223.50 L 291.50,224.00 L 292.00,224.50 L 292.50,225.00 L 293.00,225.50 L 293.50,226.00 L 294.00,226.50 L 294.50,227.00 L 295.00,227.50 L 295.50,228.00 L 295.50,229.00 L 295.00,229.50 L 294.50,230.00 L 294.00,230.50 L 293.50,231.00 L 293.50,232.00 L 293.00,232.50 L 292.00,232.50 L 291.50,233.00 L 291.50,234.00 L 291.00,234.50 L 290.50,235.00 L 290.00,235.50 L 289.00,235.50 L 288.50,236.00 L 288.50,237.00 L 288.00,237.50 L 287.50,238.00 L 287.00,238.50 L 286.50,239.00 L 286.00,239.50 L 285.00,239.50 L 284.50,240.00 L 284.50,241.00 L 284.00,241.50 L 283.50,242.00 L 283.00,242.50 L 282.00,242.50 L 281.50,243.00 L 281.50,244.00 L 281.00,244.50 L 280.50,245.00 L 280.00,245.50 L 279.50,246.00 L 279.00,246.50 L 278.50,247.00 L 278.00,247.50 L 277.50,248.00 L 277.00,248.50 L 276.50,249.00 L 276.00,249.50 L 275.50,250.00 L 275.00,250.50 L 274.50,251.00 L 274.00,251.50 L 273.00,251.50 L 272.50,252.00 L 272.00,252.50 L 271.50,253.00 L 271.00,253.50 L 270.50,254.00 L 270.00,254.50 L 269.50,255.00 L 269.50,256.00 L 269.00,256.50 L 268.50,257.00 L 268.00,257.50 L 267.50,258.00 L 267.00,258.50 L 266.50,259.00 L 266.00,259.50 L 265.00,259.50 L 264.50,260.00 L 264.00,260.50 L 263.50,261.00 L 263.50,262.00 L 263.00,262.50 L 262.50,263.00 L 262.00,263.50 L 261.50,264.00 L 261.00,264.50 L 260.50,265.00 L 260.00,265.50 L 259.50,266.00 L 259.00,266.50 L 258.50,267.00 L 258.00,267.50 L 257.50,268.00 L 257.00,268.50 L 256.50,269.00 L 256.00,269.50 L 255.50,270.00 L 255.00,270.50 L 254.00,270.50 L 253.50,271.00 L 253.00,271.50 L 252.50,272.00 L 252.50,273.00 L 252.00,273.50 L 251.50,274.00 L 251.00,274.50 L 250.50,275.00 L 250.00,275.50 L 249.00,275.50 L 248.50,276.00 L 248.50,277.00 L 248.00,277.50 L 247.00,277.50 L 246.50,278.00 L 246.00,278.50 L 245.50,279.00 L 245.50,280.00 L 245.00,280.50 L 244.50,281.00 L 244.00,281.50 L 243.50,282.00 L 243.00,282.50 L 242.00,282.50 L 241.50,283.00 L 241.50,284.00 L 241.00,284.50 L 240.00,284.50 L 239.50,285.00 L 239.50,286.00 L 239.00,286.50 L 238.50,287.00 L 238.00,287.50 L 237.50,288.00 L 237.00,288.50 L 236.00,288.50 L 235.50,289.00 L 235.00,289.50 L 234.50,290.00 L 234.00,290.50 L 233.50,291.00 L 233.00,291.50 L 232.50,292.00 L 232.50,293.00 L 232.00,293.50 L 231.50,294.00 L 231.00,294.50 L 230.00,294.50 L 229.50,295.00 L 229.00,295.50 L 228.50,296.00 L 228.00,296.50 L 227.50,297.00 L 227.00,297.50 L 226.50,298.00 L 226.00,298.50 L 225.50,299.00 L 225.50,300.00 L 225.00,300.50 L 224.50,301.00 L 224.00,301.50 L 223.50,302.00 L 223.00,302.50 L 222.00,302.50 L 221.50,303.00 L 221.50,304.00 L 221.00,304.50 L 220.50,305.00 L 220.00,305.50 L 219.50,306.00 L 219.00,306.50 L 218.50,307.00 L 218.00,307.50 L 217.50,308.00 L 217.00,308.50 L 216.00,308.50 L 215.50,309.00 L 215.00,309.50 L 214.50,310.00 L 214.50,311.00 L 214.00,311.50 L 213.00,311.50 L 212.50,312.00 L 212.50,313.00 L 212.00,313.50 L 211.50,314.00 L 211.00,314.50 L 210.50,315.00 L 210.50,316.00 L 210.50,317.00 L 211.00,317.50 L 211.50,318.00 L 212.00,318.50 L 212.50,319.00 L 213.00,319.50 L 213.50,320.00 L 214.00,320.50 L 214.50,321.00 L 215.00,321.50 L 215.50,322.00 L 216.00,322.50 L 217.00,322.50 L 217.50,323.00 L 218.00,323.50 L 218.50,324.00 L 219.00,324.50 L 219.50,325.00 L 220.00,325.50 L 220.50,326.00 L 221.00,326.50 L 221.50,327.00 L 222.00,327.50 L 222.50,328.00 L 223.00,328.50 L 224.00,328.50 L 224.50,329.00 L 225.00,329.50 L 225.50,330.00 L 226.00,330.50 L 226.50,331.00 L 227.00,331.50 L 227.50,332.00 L 228.00,332.50 L 228.50,333.00 L 229.00,333.50 L 230.00,333.50 L 230.50,334.00 L 231.00,334.50 L 231.50,335.00 L 232.00,335.50 L 232.50,336.00 L 233.00,336.50 L 233.50,337.00 L 234.00,337.50 L 234.50,338.00 L 235.00,338.50 L 235.50,339.00 L 236.00,339.50 L 237.00,339.50 L 237.50,340.00 L 238.00,340.50 L 238.50,341.00 L 239.00,341.50 L 239.50,342.00 L 240.00,342.50 L 240.50,343.00 L 241.00,343.50 L 241.50,344.00 L 242.00,344.50 L 243.00,344.50 L 243.50,345.00 L 243.50,346.00 L 244.00,346.50 L 245.00,346.50 L 245.50,347.00 L 246.00,347.50 L 246.50,348.00 L 247.00,348.50 L 247.50,349.00 L 248.00,349.50 L 248.50,350.00 L 249.00,350.50 L 249.50,351.00 L 250.00,351.50 L 251.00,351.50 L 251.50,352.00 L 251.50,353.00 L 252.00,353.50 L 253.00,353.50 L 253.50,354.00 L 254.00,354.50 L 254.50,355.00 L 255.00,355.50 L 255.50,356.00 L 256.00,356.50 L 256.50,357.00 L 257.00,357.50 L 258.00,357.50 L 258.50,358.00 L 259.00,358.50 L 259.50,359.00 L 260.00,359.50 L 260.50,360.00 L 261.00,360.50 L 261.50,361.00 L 262.00,361.50 L 262.50,362.00 L 263.00,362.50 L 264.00,362.50 L 264.50,363.00 L 265.00,363.50 L 265.50,364.00 L 266.00,364.50 L 266.50,365.00 L 267.00,365.50 L 267.50,366.00 L 268.00,366.50 L 268.50,367.00 L 269.00,367.50 L 269.50,368.00 L 270.00,368.50 L 271.00,368.50 L 271.50,369.00 L 272.00,369.50 L 272.50,370.00 L 273.00,370.50 L 273.50,371.00 L 274.00,371.50 L 274.50,372.00 L 275.00,372.50 L 275.50,373.00 L 276.00,373.50 L 276.50,374.00 L 277.00,374.50 L 278.00,374.50 L 278.50,375.00 L 278.50,376.00 L 279.00,376.50 L 280.00,376.50 L 280.50,377.00 L 281.00,377.50 L 281.50,378.00 L 282.00,378.50 L 282.50,379.00 L 283.00,379.50 L 284.00,379.50 L 284.50,380.00 L 285.00,380.50 L 285.50,381.00 L 286.00,381.50 L 286.50,382.00 L 287.00,382.50 L 287.50,383.00 L 288.00,383.50 L 288.50,384.00 L 289.00,384.50 L 289.50,385.00 L 290.00,385.50 L 290.50,386.00 L 291.00,386.50 L 292.00,386.50 L 292.50,387.00 L 293.00,387.50 L 293.50,388.00 L 294.00,388.50 L 294.50,389.00 L 295.00,389.50 L 295.50,390.00 L 296.00,390.50 L 296.50,391.00 L 297.00,391.50 L 297.50,392.00 L 298.00,392.50 L 298.50,393.00 L 299.00,393.50 L 299.50,394.00 L 300.00,394.50 L 300.50,395.00 L 300.00,395.50 L 299.50,396.00 L 299.00,396.50 L 298.50,397.00 L 298.00,397.50 L 297.50,398.00 L 297.00,398.50 L 296.50,399.00 L 296.00,399.50 L 295.50,400.00 L 295.00,400.50 L 294.50,401.00 L 294.00,401.50 L 293.50,402.00 L 293.00,402.50 L 292.50,403.00 L 292.00,403.50 L 291.50,404.00 L 291.00,404.50 L 290.50,405.00 L 290.00,405.50 L 289.50,406.00 L 289.00,406.50 L 288.50,407.00 L 288.00,407.50 L 287.50,408.00 L 287.00,408.50 L 286.50,409.00 L 286.00,409.50 L 285.50,410.00 L 285.00,410.50 L 284.50,411.00 L 284.00,411.50 L 283.50,412.00 L 283.00,412.50 L 282.50,413.00 L 282.00,413.50 L 281.50,414.00 L 281.00,414.50 L 280.50,415.00 L 280.00,415.50 L 279.50,416.00 L 279.00,416.50 L 278.50,417.00 L 278.00,417.50 L 277.50,418.00 L 277.00,418.50 L 276.50,419.00 L 276.00,419.50 L 275.50,420.00 L 275.00,420.50 L 274.50,421.00 L 274.00,421.50 L 273.00,421.50 L 272.50,422.00 L 272.00,422.50 L 271.50,423.00 L 271.00,423.50 L 270.50,424.00 L 270.50,425.00 L 270.00,425.50 L 269.50,426.00 L 269.00,426.50 L 268.50,427.00 L 268.00,427.50 L 267.50,428.00 L 267.00,428.50 L 266.00,428.50 L 265.50,429.00 L 265.00,429.50 L 264.50,430.00 L 264.50,431.00 L 264.00,431.50 L 263.00,431.50 L 262.50,432.00 L 262.00,432.50 L 261.50,433.00 L 261.00,433.50 L 260.50,434.00 L 260.00,434.50 L 259.50,435.00 L 259.00,435.50 L 258.00,435.50 L 257.50,436.00 L 257.00,436.50 Z"/>
  <path d="M 254.00,613.50 L 253.00,613.50 L 252.00,613.50 L 251.50,613.00 L 251.00,612.50 L 250.50,612.00 L 250.50,611.00 L 250.50,610.00 L 250.50,609.00 L 250.50,608.00 L 250.50,607.00 L 250.50,606.00 L 250.50,605.00 L 250.50,604.00 L 250.50,603.00 L 250.50,602.00 L 250.50,601.00 L 250.50,600.00 L 250.50,599.00 L 250.50,598.00 L 250.50,597.00 L 250.50,596.00 L 250.50,595.00 L 250.50,594.00 L 250.50,593.00 L 250.50,592.00 L 250.50,591.00 L 250.50,590.00 L 250.50,589.00 L 250.50,588.00 L 250.50,587.00 L 250.50,586.00 L 250.50,585.00 L 250.50,584.00 L 250.50,583.00 L 250.50,582.00 L 250.50,581.00 L 250.50,580.00 L 250.50,579.00 L 250.50,578.00 L 250.50,577.00 L 250.50,576.00 L 250.50,575.00 L 250.50,574.00 L 250.50,573.00 L 250.50,572.00 L 250.50,571.00 L 250.50,570.00 L 250.50,569.00 L 250.50,568.00 L 250.50,567.00 L 250.50,566.00 L 250.50,565.00 L 250.50,564.00 L 250.50,563.00 L 250.50,562.00 L 250.50,561.00 L 250.50,560.00 L 250.50,559.00 L 250.50,558.00 L 250.50,557.00 L 250.50,556.00 L 250.50,555.00 L 250.50,554.00 L 250.50,553.00 L 250.50,552.00 L 250.50,551.00 L 250.50,550.00 L 250.50,549.00 L 250.50,548.00 L 250.50,547.00 L 250.50,546.00 L 250.50,545.00 L 250.50,544.00 L 250.50,543.00 L 250.50,542.00 L 250.50,541.00 L 250.50,540.00 L 250.50,539.00 L 250.50,538.00 L 250.50,537.00 L 250.50,536.00 L 250.50,535.00 L 250.50,534.00 L 250.50,533.00 L 250.50,532.00 L 250.50,531.00 L 251.00,530.50 L 251.50,530.00 L 251.50,529.00 L 252.00,528.50 L 252.50,528.00 L 252.50,527.00 L 253.00,526.50 L 254.00,526.50 L 254.50,526.00 L 255.00,525.50 L 255.50,525.00 L 256.00,524.50 L 256.50,524.00 L 257.00,523.50 L 257.50,523.00 L 258.00,522.50 L 258.50,522.00 L 259.00,521.50 L 259.50,521.00 L 260.00,520.50 L 260.50,520.00 L 261.00,519.50 L 261.50,519.00 L 262.00,518.50 L 262.50,518.00 L 263.00,517.50 L 263.50,517.00 L 264.00,516.50 L 264.50,516.00 L 265.00,515.50 L 265.50,515.00 L 266.00,514.50 L 266.50,514.00 L 267.00,513.50 L 267.50,513.00 L 268.00,512.50 L 268.50,512.00 L 269.00,511.50 L 269.50,511.00 L 270.00,510.50 L 270.50,510.00 L 271.00,509.50 L 271.50,509.00 L 272.00,508.50 L 272.50,508.00 L 273.00,507.50 L 273.50,507.00 L 274.00,506.50 L 274.50,506.00 L 275.00,505.50 L 275.50,505.00 L 276.00,504.50 L 276.50,504.00 L 277.00,503.50 L 277.50,503.00 L 278.00,502.50 L 278.50,502.00 L 279.00,501.50 L 279.50,501.00 L 280.00,500.50 L 280.50,500.00 L 281.00,499.50 L 281.50,499.00 L 282.00,498.50 L 282.50,498.00 L 283.00,497.50 L 283.50,497.00 L 284.00,496.50 L 284.50,496.00 L 285.00,495.50 L 285.50,495.00 L 286.00,494.50 L 286.50,494.00 L 287.00,493.50 L 288.00,493.50 L 288.50,493.00 L 288.50,492.00 L 289.00,491.50 L 289.50,491.00 L 290.00,490.50 L 290.50,490.00 L 291.00,489.50 L 291.50,489.00 L 292.00,488.50 L 292.50,488.00 L 293.00,487.50 L 293.50,487.00 L 294.00,486.50 L 294.50,486.00 L 295.00,485.50 L 295.50,485.00 L 296.00,484.50 L 296.50,484.00 L 297.00,483.50 L 297.50,483.00 L 298.00,482.50 L 298.50,482.00 L 299.00,481.50 L 299.50,481.00 L 300.00,480.50 L 300.50,480.00 L 301.00,479.50 L 301.50,479.00 L 302.00,478.50 L 302.50,478.00 L 303.00,477.50 L 303.50,477.00 L 304.00,476.50 L 304.50,476.00 L 305.00,475.50 L 305.50,475.00 L 306.00,474.50 L 306.50,474.00 L 307.00,473.50 L 307.50,473.00 L 308.00,472.50 L 308.50,472.00 L 309.00,471.50 L 309.50,471.00 L 310.00,470.50 L 310.50,470.00 L 311.00,469.50 L 311.50,469.00 L 312.00,468.50 L 312.50,468.00 L 313.00,467.50 L 313.50,467.00 L 314.00,466.50 L 314.50,466.00 L 315.00,465.50 L 315.50,465.00 L 316.00,464.50 L 316.50,464.00 L 317.00,463.50 L 317.50,463.00 L 318.00,462.50 L 318.50,462.00 L 319.00,461.50 L 320.00,461.50 L 320.50,461.00 L 320.50,460.00 L 321.00,459.50 L 321.50,459.00 L 322.00,458.50 L 322.50,458.00 L 323.00,457.50 L 323.50,457.00 L 324.00,456.50 L 325.00,456.50 L 325.50,456.00 L 325.50,455.00 L 326.00,454.50 L 326.50,454.00 L 327.00,453.50 L 327.50,453.00 L 328.00,452.50 L 328.50,452.00 L 329.00,451.50 L 329.50,451.00 L 330.00,450.50 L 330.50,450.00 L 331.00,449.50 L 332.00,449.50 L 332.50,449.00 L 332.50,448.00 L 333.00,447.50 L 334.00,447.50 L 334.50,447.00 L 334.50,446.00 L 335.00,445.50 L 336.00,445.50 L 336.50,445.00 L 337.00,444.50 L 337.50,444.00 L 337.50,443.00 L 338.00,442.50 L 338.50,442.00 L 339.00,441.50 L 339.50,441.00 L 340.00,440.50 L 340.50,440.00 L 341.00,439.50 L 341.50,439.00 L 342.00,438.50 L 342.50,438.00 L 343.00,437.50 L 344.00,437.50 L 344.50,437.00 L 345.00,436.50 L 345.50,437.00 L 346.00,437.50 L 347.00,437.50 L 348.00,437.50 L 348.50,438.00 L 349.00,438.50 L 349.50,439.00 L 350.00,439.50 L 350.50,440.00 L 351.00,440.50 L 351.50,441.00 L 352.00,441.50 L 353.00,441.50 L 353.50,442.00 L 354.00,442.50 L 354.50,443.00 L 354.50,444.00 L 355.00,444.50 L 356.00,444.50 L 356.50,445.00 L 357.00,445.50 L 357.50,446.00 L 358.00,446.50 L 358.50,447.00 L 359.00,447.50 L 359.50,448.00 L 360.00,448.50 L 360.50,449.00 L 361.00,449.50 L 361.50,450.00 L 362.00,450.50 L 362.50,451.00 L 363.00,451.50 L 364.00,451.50 L 364.50,452.00 L 365.00,452.50 L 366.00,452.50 L 366.50,453.00 L 366.50,454.00 L 367.00,454.50 L 367.50,455.00 L 368.00,455.50 L 368.50,456.00 L 369.00,456.50 L 370.00,456.50 L 370.50,457.00 L 371.00,457.50 L 371.50,458.00 L 372.00,458.50 L 372.50,459.00 L 373.00,459.50 L 373.50,460.00 L 374.00,460.50 L 374.50,461.00 L 375.00,461.50 L 376.00,461.50 L 376.50,462.00 L 376.50,463.00 L 377.00,463.50 L 378.00,463.50 L 378.50,464.00 L 379.00,464.50 L 379.50,465.00 L 380.00,465.50 L 380.50,466.00 L 381.00,466.50 L 382.00,466.50 L 382.50,467.00 L 382.50,468.00 L 383.00,468.50 L 384.00,468.50 L 384.50,469.00 L 384.50,470.00 L 385.00,470.50 L 386.00,470.50 L 386.50,471.00 L 387.00,471.50 L 387.50,472.00 L 388.00,472.50 L 388.50,473.00 L 389.00,473.50 L 389.50,474.00 L 389.50,475.00 L 389.50,476.00 L 389.50,477.00 L 389.00,477.50 L 388.50,478.00 L 388.00,478.50 L 387.50,479.00 L 387.00,479.50 L 386.50,480.00 L 386.00,480.50 L 385.50,481.00 L 385.00,481.50 L 384.50,482.00 L 384.00,482.50 L 383.50,483.00 L 383.00,483.50 L 382.50,484.00 L 382.00,484.50 L 381.50,485.00 L 381.00,485.50 L 380.50,486.00 L 380.00,486.50 L 379.50,487.00 L 379.00,487.50 L 378.50,488.00 L 378.00,488.50 L 377.50,489.00 L 377.00,489.50 L 376.50,490.00 L 376.00,490.50 L 375.50,491.00 L 375.00,491.50 L 374.50,492.00 L 374.00,492.50 L 373.50,493.00 L 373.00,493.50 L 372.50,494.00 L 372.00,494.50 L 371.50,495.00 L 371.00,495.50 L 370.50,496.00 L 370.00,496.50 L 369.50,497.00 L 369.00,497.50 L 368.50,498.00 L 368.00,498.50 L 367.50,499.00 L 367.00,499.50 L 366.50,500.00 L 366.00,500.50 L 365.50,501.00 L 365.00,501.50 L 364.50,502.00 L 364.00,502.50 L 363.50,503.00 L 363.00,503.50 L 362.50,504.00 L 362.00,504.50 L 361.50,505.00 L 361.00,505.50 L 360.50,506.00 L 360.00,506.50 L 359.50,507.00 L 359.00,507.50 L 358.50,508.00 L 358.00,508.50 L 357.50,509.00 L 357.00,509.50 L 356.50,510.00 L 356.00,510.50 L 355.50,511.00 L 355.00,511.50 L 354.50,512.00 L 354.50,513.00 L 354.00,513.50 L 353.00,513.50 L 352.50,514.00 L 352.00,514.50 L 351.50,515.00 L 351.00,515.50 L 350.50,516.00 L 350.00,516.50 L 349.50,517.00 L 349.00,517.50 L 348.50,518.00 L 348.00,518.50 L 347.50,519.00 L 347.00,519.50 L 346.50,520.00 L 346.00,520.50 L 345.50,521.00 L 345.00,521.50 L 344.50,522.00 L 344.00,522.50 L 343.50,523.00 L 343.00,523.50 L 342.50,524.00 L 342.00,524.50 L 341.50,525.00 L 341.50,526.00 L 341.00,526.50 L 340.00,526.50 L 339.50,527.00 L 339.00,527.50 L 338.50,528.00 L 338.00,528.50 L 337.50,529.00 L 337.00,529.50 L 336.50,530.00 L 336.00,530.50 L 335.50,531.00 L 335.50,532.00 L 335.00,532.50 L 334.50,533.00 L 334.00,533.50 L 333.50,534.00 L 333.00,534.50 L 332.00,534.50 L 331.50,535.00 L 331.00,535.50 L 330.50,536.00 L 330.50,537.00 L 330.00,537.50 L 329.00,537.50 L 328.50,538.00 L 328.50,539.00 L 328.00,539.50 L 327.50,540.00 L 327.00,540.50 L 326.50,541.00 L 326.00,541.50 L 325.50,542.00 L 325.00,542.50 L 324.50,543.00 L 324.00,543.50 L 323.50,544.00 L 323.00,544.50 L 322.50,545.00 L 322.00,545.50 L 321.00,545.50 L 320.50,546.00 L 320.50,547.00 L 320.00,547.50 L 319.50,548.00 L 319.00,548.50 L 318.00,548.50 L 317.50,549.00 L 317.00,549.50 L 316.50,550.00 L 316.00,550.50 L 315.50,551.00 L 315.50,552.00 L 315.00,552.50 L 314.50,553.00 L 314.00,553.50 L 313.50,554.00 L 313.00,554.50 L 312.50,555.00 L 312.00,555.50 L 311.50,556.00 L 311.00,556.50 L 310.00,556.50 L 309.50,557.00 L 309.50,558.00 L 309.00,558.50 L 308.50,559.00 L 308.00,559.50 L 307.50,560.00 L 307.00,560.50 L 306.50,561.00 L 306.00,561.50 L 305.50,562.00 L 305.00,562.50 L 304.50,563.00 L 304.00,563.50 L 303.50,564.00 L 303.00,564.50 L 302.50,565.00 L 302.00,565.50 L 301.50,566.00 L 301.00,566.50 L 300.50,567.00 L 300.00,567.50 L 299.50,568.00 L 299.00,568.50 L 298.50,569.00 L 298.00,569.50 L 297.50,570.00 L 297.00,570.50 L 296.50,571.00 L 296.00,571.50 L 295.50,572.00 L 295.00,572.50 L 294.50,573.00 L 294.00,573.50 L 293.50,574.00 L 293.00,574.50 L 292.50,575.00 L 292.00,575.50 L 291.50,576.00 L 291.00,576.50 L 290.50,577.00 L 290.00,577.50 L 289.50,578.00 L 289.00,578.50 L 288.50,579.00 L 288.00,579.50 L 287.50,580.00 L 287.00,580.50 L 286.50,581.00 L 286.00,581.50 L 285.50,582.00 L 285.00,582.50 L 284.50,583.00 L 284.00,583.50 L 283.50,584.00 L 283.00,584.50 L 282.50,585.00 L 282.00,585.50 L 281.50,586.00 L 281.00,586.50 L 280.50,587.00 L 280.00,587.50 L 279.50,588.00 L 279.00,588.50 L 278.50,589.00 L 278.00,589.50 L 277.50,590.00 L 277.00,590.50 L 276.50,591.00 L 276.00,591.50 L 275.50,592.00 L 275.00,592.50 L 274.50,593.00 L 274.00,593.50 L 273.50,594.00 L 273.00,594.50 L 272.50,595.00 L 272.00,595.50 L 271.50,596.00 L 271.50,597.00 L 271.00,597.50 L 270.00,597.50 L 269.50,598.00 L 269.00,598.50 L 268.50,599.00 L 268.00,599.50 L 267.50,600.00 L 267.00,600.50 L 266.50,601.00 L 266.00,601.50 L 265.50,602.00 L 265.00,602.50 L 264.50,603.00 L 264.00,603.50 L 263.50,604.00 L 263.00,604.50 L 262.50,605.00 L 262.00,605.50 L 261.50,606.00 L 261.00,606.50 L 260.50,607.00 L 260.50,608.00 L 260.00,608.50 L 259.00,608.50 L 258.50,609.00 L 258.00,609.50 L 257.50,610.00 L 257.50,611.00 L 257.00,611.50 L 256.00,611.50 L 255.50,612.00 L 255.00,612.50 L 254.50,613.00 L 254.00,613.50 Z"/>
</g>
  </g>
</svg>
